<svg xmlns="http://www.w3.org/2000/svg" viewBox="0 0 750 500"><g id="freepik--background-complete--inject-105"><rect x="177.34" y="103.42" width="27.09" height="58" style="fill:#f5f5f5"></rect><rect x="205.56" y="165.47" width="33.29" height="56.04" style="fill:#f5f5f5"></rect><polygon points="242.91 102.41 274.52 102.41 274.52 50.96 275.65 50.96 275.65 102.41 304.91 102.41 304.91 49.82 242.91 49.82 242.91 102.41" style="fill:#f5f5f5"></polygon><rect x="177.34" y="165.47" width="27.09" height="56.04" style="fill:#f5f5f5"></rect><rect x="275.65" y="165.47" width="29.26" height="56.04" style="fill:#f5f5f5"></rect><rect x="205.56" y="103.42" width="33.29" height="58" style="fill:#f5f5f5"></rect><rect x="275.65" y="103.42" width="29.26" height="58" style="fill:#f5f5f5"></rect><rect x="177.34" y="222.51" width="27.09" height="50.5" style="fill:#f5f5f5"></rect><polygon points="204.44 102.41 204.44 50.96 205.56 50.96 205.56 102.41 238.86 102.41 238.86 49.82 177.34 49.82 177.34 102.41 204.44 102.41" style="fill:#f5f5f5"></polygon><rect x="205.56" y="222.51" width="33.29" height="50.5" style="fill:#f5f5f5"></rect><rect x="275.65" y="222.51" width="29.26" height="50.5" style="fill:#f5f5f5"></rect><rect x="242.91" y="103.42" width="31.61" height="58" style="fill:#f5f5f5"></rect><rect x="242.91" y="222.51" width="31.61" height="50.5" style="fill:#f5f5f5"></rect><rect x="242.91" y="165.47" width="31.61" height="56.04" style="fill:#f5f5f5"></rect><rect x="45.3" y="103.42" width="27.1" height="58" style="fill:#f5f5f5"></rect><rect x="73.52" y="165.47" width="33.29" height="56.04" style="fill:#f5f5f5"></rect><polygon points="110.86 102.41 142.48 102.41 142.48 50.96 143.6 50.96 143.6 102.41 172.86 102.41 172.86 49.82 110.86 49.82 110.86 102.41" style="fill:#f5f5f5"></polygon><rect x="45.3" y="165.47" width="27.1" height="56.04" style="fill:#f5f5f5"></rect><rect x="143.6" y="165.47" width="29.26" height="56.04" style="fill:#f5f5f5"></rect><rect x="73.52" y="103.42" width="33.29" height="58" style="fill:#f5f5f5"></rect><rect x="143.6" y="103.42" width="29.26" height="58" style="fill:#f5f5f5"></rect><rect x="45.3" y="222.51" width="27.1" height="50.5" style="fill:#f5f5f5"></rect><polygon points="72.39 102.41 72.39 50.96 73.52 50.96 73.52 102.41 106.81 102.41 106.81 49.82 45.3 49.82 45.3 102.41 72.39 102.41" style="fill:#f5f5f5"></polygon><rect x="73.52" y="222.51" width="33.29" height="50.5" style="fill:#f5f5f5"></rect><rect x="143.6" y="222.51" width="29.26" height="50.5" style="fill:#f5f5f5"></rect><rect x="110.86" y="103.42" width="31.61" height="58" style="fill:#f5f5f5"></rect><rect x="110.86" y="222.51" width="31.61" height="50.5" style="fill:#f5f5f5"></rect><rect x="110.86" y="165.47" width="31.61" height="56.04" style="fill:#f5f5f5"></rect><rect x="675.88" y="58.06" width="12.18" height="174.69" style="fill:#e0e0e0"></rect><rect x="507.56" y="58.06" width="174.69" height="174.69" style="fill:#f5f5f5"></rect><rect x="512.41" y="62.9" width="165.01" height="165.01" style="fill:#fff"></rect><path d="M682.25,58.06a4.19,4.19,0,0,1-.29.33l-.91,1L677.48,63l0,0h-.05c-13.38.1-45.28.16-82.5.16s-69.12-.06-82.5-.16h0l0,0-3.56-3.63-.91-1-.3-.33a4.3,4.3,0,0,1,.34.3l1,.91,3.63,3.56-.07,0c13.38-.09,45.28-.16,82.5-.16s69.12.07,82.5.16l-.07,0L681,59.27l.95-.91C682.14,58.15,682.25,58.06,682.25,58.06Z" style="fill:#e0e0e0"></path><path d="M507.56,232.75l.3-.33.91-.95,3.56-3.63,0,0h0c13.38-.09,45.28-.16,82.5-.16s69.12.07,82.5.16h.05l0,0,3.57,3.63.91.95a4.19,4.19,0,0,1,.29.33l-.33-.3-.95-.91L677.34,228l.07,0c-13.38.09-45.28.16-82.5.16s-69.12-.07-82.5-.16l.07,0-3.63,3.56-1,.91A4.3,4.3,0,0,1,507.56,232.75Z" style="fill:#e0e0e0"></path><rect x="568.65" y="114.11" width="60.65" height="60.65" style="fill:#e0e0e0"></rect><rect x="335.31" y="27.44" width="129.16" height="18.67" style="fill:#f5f5f5"></rect><rect x="347.15" y="42.18" width="108.07" height="423.49" style="fill:#f5f5f5"></rect><path d="M463.07,44.75c0,.14-28.35.26-63.3.26s-63.31-.12-63.31-.26,28.34-.26,63.31-.26S463.07,44.6,463.07,44.75Z" style="fill:#e0e0e0"></path><rect x="335.31" y="447.38" width="129.16" height="18.67" style="fill:#f5f5f5"></rect><path d="M463.19,447.38c0,.15-28.34.26-63.3.26s-63.31-.11-63.31-.26,28.34-.26,63.31-.26S463.19,447.24,463.19,447.38Z" style="fill:#e0e0e0"></path></g><g id="freepik--Floor--inject-105"><path d="M722.84,466.65c0,.15-155.74.26-347.82.26s-347.86-.11-347.86-.26,155.71-.26,347.86-.26S722.84,466.51,722.84,466.65Z" style="fill:#263238"></path></g><g id="freepik--Plants--inject-105"><path d="M115.87,300.34c-8.67,4.49-15.32,12.23-20.1,20.74s-7.87,17.86-10.92,27.14l-2.67,47.84c10.09-17.16,18.19-37.34,20.38-57.13l-6.72-.6c4.5-.69,8.28-3.95,10.69-7.82s3.64-8.33,4.85-12.72L103.19,319A30.39,30.39,0,0,0,115.87,300.34Z" style="fill:#455a64"></path><g style="opacity:0.30000000000000004"><path d="M115.87,300.34c-8.67,4.49-15.32,12.23-20.1,20.74s-7.87,17.86-10.92,27.14l-2.67,47.84c10.09-17.16,18.19-37.34,20.38-57.13l-6.72-.6c4.5-.69,8.28-3.95,10.69-7.82s3.64-8.33,4.85-12.72L103.19,319A30.39,30.39,0,0,0,115.87,300.34Z"></path></g><path d="M80.69,407.27S58.79,381.06,59,356h8.84s-9.6-6.31-8.84-9.85,1-16.94,1-16.94l8.09,2s-6.07-3-6.83-7.83,1.77-27.05,1.77-27.05,9.86,10.36,12.89,21,11,23,8.66,55.36S80.69,407.27,80.69,407.27Z" style="fill:#455a64"></path><path d="M91.79,409.75s23.73-15.81,29-36l-7.11-1.94s9.1-3,9.27-6S125.84,352,125.84,352l-7-.14s5.54-1.11,7.2-4.81,4.5-22.13,4.5-22.13-10.2,6.18-15,14.05-13.87,16.09-19.07,42.61S91.79,409.75,91.79,409.75Z" style="fill:#455a64"></path><path d="M69.06,319.24s0,.09.09.27l.2.8.7,3.11c.31,1.35.66,3,1,4.93s.85,4.12,1.3,6.56c.94,4.86,1.93,10.67,2.95,17.13s2,13.6,2.86,21.1,1.52,14.68,2,21.2.84,12.42,1,17.36.32,8.95.34,11.72l0,3.19v.83c0,.18,0,.28,0,.28a1.18,1.18,0,0,1,0-.28l0-.83-.12-3.18c-.09-2.77-.25-6.77-.5-11.71s-.64-10.82-1.14-17.34-1.22-13.68-2.08-21.18-1.85-14.62-2.81-21.08S72.93,339.84,72,335c-.42-2.43-.85-4.63-1.22-6.56s-.68-3.59-1-5l-.61-3.13-.14-.81C69.07,319.33,69.06,319.24,69.06,319.24Z" style="fill:#263238"></path><path d="M77.65,423.32s-20-22.74-26.27-36.48l4.7-2c-3.4.56-6.89-.9-9.53-3.12a36.25,36.25,0,0,1-6.48-8l6.18-1.05a23,23,0,0,1-13.52-10.47c7.31,1.2,13.91,5.21,19.36,10.23A96.36,96.36,0,0,1,63.82,386a47.1,47.1,0,0,1,4.55,7.48C71.74,400.43,77.66,415,77.65,423.32Z" style="fill:#455a64"></path><path d="M121.1,338.16a.88.88,0,0,1-.08.23l-.31.67-1.21,2.52c-1.07,2.19-2.58,5.37-4.42,9.31-3.68,7.88-8.53,18.88-13.32,31.26s-8.6,23.79-11.18,32.1c-1.29,4.15-2.31,7.52-3,9.86l-.8,2.68-.22.7a1.17,1.17,0,0,1-.1.23,1.15,1.15,0,0,1,0-.25l.18-.7.71-2.72c.62-2.35,1.58-5.74,2.83-9.91,2.49-8.34,6.25-19.78,11-32.18s9.71-23.38,13.48-31.23c1.88-3.92,3.45-7.08,4.57-9.24.55-1.05,1-1.88,1.3-2.48l.35-.64A.89.89,0,0,1,121.1,338.16Z" style="fill:#263238"></path><path d="M79.35,433.07a8.81,8.81,0,0,1-.31-1.62c-.16-1.05-.43-2.56-.8-4.42a92.06,92.06,0,0,0-4.07-14.21,92.93,92.93,0,0,0-6.34-13.36c-1-1.64-1.75-2.95-2.32-3.84a10.19,10.19,0,0,1-.84-1.42,9.2,9.2,0,0,1,1,1.31c.62.86,1.47,2.14,2.47,3.77a80.92,80.92,0,0,1,6.51,13.35A81.21,81.21,0,0,1,78.6,427c.33,1.88.54,3.4.64,4.46A11.81,11.81,0,0,1,79.35,433.07Z" style="fill:#263238"></path><rect x="61.93" y="427.72" width="43.86" height="8.95" style="fill:#800020"></rect><polygon points="66.11 436.67 70.85 466.76 97.36 466.76 101.78 436.67 66.11 436.67" style="fill:#800020"></polygon><path d="M103.1,436.67c0,.14-8.29.26-18.53.26S66,436.81,66,436.67s8.29-.26,18.53-.26S103.1,436.52,103.1,436.67Z" style="fill:#263238"></path><path d="M696.29,300.34c-8.67,4.49-15.32,12.23-20.1,20.74s-7.86,17.86-10.91,27.14l-2.68,47.84c10.09-17.16,18.19-37.34,20.38-57.13l-6.71-.6c4.5-.69,8.28-3.95,10.68-7.82s3.64-8.33,4.85-12.72L683.61,319A30.35,30.35,0,0,0,696.29,300.34Z" style="fill:#455a64"></path><g style="opacity:0.30000000000000004"><path d="M696.29,300.34c-8.67,4.49-15.32,12.23-20.1,20.74s-7.86,17.86-10.91,27.14l-2.68,47.84c10.09-17.16,18.19-37.34,20.38-57.13l-6.71-.6c4.5-.69,8.28-3.95,10.68-7.82s3.64-8.33,4.85-12.72L683.61,319A30.35,30.35,0,0,0,696.29,300.34Z"></path></g><path d="M661.11,407.27s-21.9-26.21-21.65-51.24h8.85s-9.61-6.31-8.85-9.85,1-16.94,1-16.94l8.09,2s-6.06-3-6.82-7.83,1.77-27.05,1.77-27.05,9.85,10.36,12.89,21,11,23,8.66,55.36S661.11,407.27,661.11,407.27Z" style="fill:#455a64"></path><path d="M672.21,409.75s23.73-15.81,29-36l-7.11-1.94s9.11-3,9.27-6S706.26,352,706.26,352l-6.94-.14s5.54-1.11,7.2-4.81S711,324.92,711,324.92s-10.19,6.18-15,14.05S682.19,355.06,677,381.58,672.21,409.75,672.21,409.75Z" style="fill:#455a64"></path><path d="M649.49,319.24s0,.09.08.27.12.47.2.8c.17.75.41,1.79.7,3.11s.67,3,1,4.93.85,4.12,1.3,6.56c.94,4.86,1.94,10.67,3,17.13s2,13.6,2.85,21.1,1.53,14.68,2,21.2.84,12.42,1,17.36.31,8.95.33,11.72c0,1.36,0,2.42,0,3.19,0,.34,0,.61,0,.83a.9.9,0,0,1,0,.28,1,1,0,0,1,0-.28c0-.22,0-.49,0-.83q0-1.16-.12-3.18c-.08-2.77-.25-6.77-.5-11.71s-.63-10.82-1.14-17.34S659,380.7,658.12,373.2s-1.85-14.62-2.82-21.08-1.95-12.28-2.84-17.15c-.43-2.43-.86-4.63-1.22-6.56s-.69-3.59-1-5-.47-2.37-.61-3.13l-.15-.81A1,1,0,0,1,649.49,319.24Z" style="fill:#263238"></path><path d="M658.07,423.32s-20-22.74-26.26-36.48l4.7-2c-3.41.56-6.9-.9-9.54-3.12a36.25,36.25,0,0,1-6.48-8l6.19-1.05a23,23,0,0,1-13.52-10.47c7.3,1.2,13.91,5.21,19.35,10.23A96.36,96.36,0,0,1,644.24,386a45.67,45.67,0,0,1,4.55,7.48C652.16,400.43,658.08,415,658.07,423.32Z" style="fill:#455a64"></path><path d="M701.53,338.16a.76.76,0,0,1-.09.23l-.3.67c-.3.61-.7,1.46-1.21,2.52-1.07,2.19-2.59,5.37-4.43,9.31-3.67,7.88-8.53,18.88-13.32,31.26s-8.59,23.79-11.17,32.1c-1.3,4.15-2.31,7.52-3,9.86-.34,1.13-.61,2-.81,2.68l-.22.7a.92.92,0,0,1-.09.23.68.68,0,0,1,0-.25c0-.19.1-.42.17-.7l.71-2.72c.62-2.35,1.58-5.74,2.83-9.91,2.5-8.34,6.26-19.78,11.05-32.18s9.7-23.38,13.47-31.23c1.88-3.92,3.45-7.08,4.58-9.24.54-1.05,1-1.88,1.29-2.48l.35-.64C701.47,338.22,701.52,338.15,701.53,338.16Z" style="fill:#263238"></path><path d="M659.77,433.07a11.67,11.67,0,0,1-.31-1.62c-.16-1.05-.43-2.56-.8-4.42a93,93,0,0,0-4.06-14.21,91.78,91.78,0,0,0-6.35-13.36c-.94-1.64-1.74-2.95-2.32-3.84a10.62,10.62,0,0,1-.83-1.42,9.77,9.77,0,0,1,1,1.31c.63.86,1.48,2.14,2.47,3.77A80.25,80.25,0,0,1,659,427c.33,1.88.54,3.4.64,4.46A8.84,8.84,0,0,1,659.77,433.07Z" style="fill:#263238"></path><rect x="642.35" y="427.72" width="43.86" height="8.95" style="fill:#800020"></rect><polygon points="646.53 436.67 651.28 466.76 677.78 466.76 682.21 436.67 646.53 436.67" style="fill:#800020"></polygon><path d="M683.53,436.67c0,.14-8.3.26-18.53.26s-18.54-.12-18.54-.26,8.3-.26,18.54-.26S683.53,436.52,683.53,436.67Z" style="fill:#263238"></path></g><g id="freepik--Chair--inject-105"><polygon points="425.58 369.69 437.13 466.62 432.14 466.62 419.87 369.69 425.58 369.69" style="fill:#455a64"></polygon><polygon points="379.53 369.69 368.92 466.62 363.48 466.62 373.82 369.69 379.53 369.69" style="fill:#455a64"></polygon><polyline points="322.42 369.69 313.58 466.62 307.51 466.62 317.6 369.69 324.92 369.69" style="fill:#455a64"></polyline><path d="M348.56,272.65H296.1a5.55,5.55,0,0,0-5.49,6.33l11.91,83a8.93,8.93,0,0,0,8.83,7.66h62.72Z" style="fill:#455a64"></path><path d="M441,366h0a3.71,3.71,0,0,0-3.78-3.71l-58.11,1.09a9.49,9.49,0,0,1-9.55-8L357.26,280a8.82,8.82,0,0,0-8.7-7.39h0L362,357.49a14.46,14.46,0,0,0,14.28,12.2h61A3.72,3.72,0,0,0,441,366Z" style="fill:#455a64"></path><path d="M379.14,363.4a2,2,0,0,1-.4,0l-1.18,0-4.55,0-16.73.09-24.82.05-14.65,0a6.9,6.9,0,0,1-3.82-.92,6.71,6.71,0,0,1-2.68-3,7.54,7.54,0,0,1-.55-2c-.1-.66-.2-1.31-.31-2-.2-1.32-.4-2.64-.61-4-3.27-21.3-6.22-40.59-8.36-54.58-1.05-7-1.89-12.61-2.48-16.54-.28-1.94-.5-3.45-.65-4.51q-.09-.74-.15-1.17a2.94,2.94,0,0,1,0-.4,2.08,2.08,0,0,1,.09.39c.05.29.12.67.21,1.17.17,1,.42,2.56.74,4.49.63,3.92,1.53,9.56,2.64,16.52l8.51,54.55c.21,1.33.41,2.65.62,4a16.13,16.13,0,0,0,.81,3.79,6.27,6.27,0,0,0,2.47,2.75,6.48,6.48,0,0,0,3.56.85h14.65l24.82.06,16.73.08,4.55.05,1.18,0Z" style="fill:#263238"></path></g><g id="freepik--speech-bubble--inject-105"><path d="M592.62,117.63l6.55-.44a25,25,0,1,0-6.1-6.57h0Z" style="fill:#fff"></path><path d="M592.62,117.63s0-.14,0-.44,0-.77.06-1.33c.06-1.23.14-3,.25-5.25a.13.13,0,0,1,.13-.12.1.1,0,0,1,.07,0h0l-.18.16A25,25,0,0,1,589,99.25a25.73,25.73,0,0,1,.59-8A25.15,25.15,0,0,1,593.32,83a25.82,25.82,0,0,1,7.23-7,24.53,24.53,0,0,1,10.18-3.79,25.81,25.81,0,0,1,11.51,1.1,25.32,25.32,0,0,1,16.22,17.21,25.71,25.71,0,0,1,.4,11.68,24.53,24.53,0,0,1-4.5,10,25.76,25.76,0,0,1-7.54,6.77,25.4,25.4,0,0,1-8.61,3.11l-2.11.24c-.7.06-1.39,0-2.06.06a23,23,0,0,1-3.86-.31,24.93,24.93,0,0,1-11.08-4.75l.08,0-4.9.26-1.25.05h-.41a2.57,2.57,0,0,1,.45,0l1.27-.12,4.82-.38.08,0a24.89,24.89,0,0,0,11,4.57,23.41,23.41,0,0,0,3.81.27c.66,0,1.33,0,2-.07l2.08-.26a24.89,24.89,0,0,0,8.43-3.09,25.33,25.33,0,0,0,7.36-6.67,24.11,24.11,0,0,0,4.38-9.79,25.38,25.38,0,0,0-.41-11.41,24.79,24.79,0,0,0-15.84-16.82,25.25,25.25,0,0,0-11.25-1.09,24.11,24.11,0,0,0-10,3.68,25.3,25.3,0,0,0-7.1,6.82,24.62,24.62,0,0,0-3.67,8.14,24.9,24.9,0,0,0,3.11,19.18.11.11,0,0,1,0,.16.12.12,0,0,1-.15,0h0l.2-.08c-.17,2.23-.3,4-.39,5.17,0,.58-.09,1-.11,1.36A3.52,3.52,0,0,1,592.62,117.63Z" style="fill:#263238"></path><path d="M608.66,97.15a2.74,2.74,0,1,1-2.73-2.73A2.73,2.73,0,0,1,608.66,97.15Z" style="fill:#263238"></path><path d="M617.86,97.15a2.74,2.74,0,1,1-2.73-2.73A2.73,2.73,0,0,1,617.86,97.15Z" style="fill:#263238"></path><path d="M626.82,97.15a2.74,2.74,0,1,1-2.74-2.73A2.74,2.74,0,0,1,626.82,97.15Z" style="fill:#263238"></path></g><g id="freepik--character-3--inject-105"><path d="M544.54,110.22c-2.59-1.58-3.28-5.34-1.94-8.07a9.9,9.9,0,0,1,7.24-5,14,14,0,0,1,12.1,3.77c1.69,1.68,3.06,3.87,5.32,4.61,2,.65,4.15,0,6.22.23a9.36,9.36,0,0,1,6.66,4.62,20.2,20.2,0,0,1,2.48,7.95c.35,2.54.6,5.33,2.4,7.16s4.49,2.12,6.65,3.37a9,9,0,0,1,2.9,12.28c-.82,1.25-2,2.41-2.09,3.91s.84,2.57,1.28,3.87a6.09,6.09,0,0,1-5.08,7.65c-1.78.14-3.69-.52-5.27.3s-2.13,2.74-3.11,4.21a7.64,7.64,0,0,1-9.25,2.57c-1.32-.62-2.57-1.66-4-1.54s-2.57,1.39-4,1.69c-1.87.39-3.67-.95-4.81-2.48s-1.94-3.33-3.39-4.57c-1.89-1.62-4.51-2-6.88-2.75a19.28,19.28,0,0,1-11.37-26.81" style="fill:#263238"></path><path d="M572.24,143.22a5.18,5.18,0,0,1,2-1.4h-.16a3.54,3.54,0,0,1,.45-.08,2,2,0,0,1,1.62.17h0a3.84,3.84,0,0,1,2.13,1.79,4.54,4.54,0,0,1-.45,4.7,3.81,3.81,0,0,1-3.75,1.62,3.86,3.86,0,0,1-2.65-2.7A4.3,4.3,0,0,1,572.24,143.22Z" style="fill:#455a64"></path><path d="M538.93,171.07l-3.62-49.92a4.25,4.25,0,0,1,3.59-4.47L561.13,110c7.16-1.09,12.36,7.55,13.15,14.76.88,8,1.64,17.82,1,23.85C573.89,160.7,564,162.71,564,162.71s.15,12.33.3,16.71l3,13.53Z" style="fill:#ffbf9d"></path><path d="M571.8,135.26a1.55,1.55,0,0,1-1.42,1.62,1.48,1.48,0,0,1-1.66-1.31,1.55,1.55,0,0,1,1.42-1.63A1.48,1.48,0,0,1,571.8,135.26Z" style="fill:#263238"></path><path d="M572.39,129.92c-.18.21-1.39-.6-3.06-.52s-2.84,1-3,.77.09-.46.6-.87a4.27,4.27,0,0,1,2.42-.87,4.07,4.07,0,0,1,2.44.67C572.29,129.47,572.48,129.82,572.39,129.92Z" style="fill:#263238"></path><path d="M557.22,136a1.54,1.54,0,0,1-1.41,1.62,1.47,1.47,0,0,1-1.66-1.31,1.54,1.54,0,0,1,1.41-1.63A1.47,1.47,0,0,1,557.22,136Z" style="fill:#263238"></path><path d="M556.06,131c-.18.21-1.39-.6-3.06-.52s-2.84,1-3,.77.09-.46.6-.87a4.3,4.3,0,0,1,2.42-.87,4.07,4.07,0,0,1,2.44.67C556,130.54,556.15,130.89,556.06,131Z" style="fill:#263238"></path><path d="M562.67,143a10.71,10.71,0,0,1,2.67-.62c.43-.06.82-.16.88-.46a2.1,2.1,0,0,0-.34-1.24l-1.4-3.17c-2-4.53-3.4-8.25-3.22-8.33s1.92,3.53,3.88,8.05l1.35,3.19a2.47,2.47,0,0,1,.3,1.66,1.05,1.05,0,0,1-.67.65,3.13,3.13,0,0,1-.72.14A10.93,10.93,0,0,1,562.67,143Z" style="fill:#263238"></path><path d="M564,162.71a28.93,28.93,0,0,1-15.61-3.61s3.65,8.9,15.66,7.22Z" style="fill:#ff9a6c"></path><path d="M556.48,125.32c-.15.46-1.82.32-3.75.64s-3.5.93-3.78.54c-.12-.19.13-.63.75-1.09a6.37,6.37,0,0,1,2.76-1.12,6.43,6.43,0,0,1,3,.21C556.16,124.76,556.54,125.1,556.48,125.32Z" style="fill:#263238"></path><path d="M571.54,124.22c-.28.4-1.44.06-2.82.1s-2.53.37-2.82,0c-.12-.19,0-.57.54-1a4.06,4.06,0,0,1,4.54-.07C571.48,123.65,571.66,124,571.54,124.22Z" style="fill:#263238"></path><path d="M582.36,122a8.27,8.27,0,0,0-3.26-4.5,29.86,29.86,0,0,1-2.71-1.52c-1.77-1.37-2.21-3.81-3.33-5.75a9.09,9.09,0,0,0-7-4.48c-2.4-.2-4.84.56-7.18,0-1.73-.4-3.25-1.49-5-1.79-3.41-.58-6.52,1.91-8.94,4.38,0,2.43,2,4,3.89,5.55a8.45,8.45,0,0,0,6.86,1.68c1.85-.38,3.86-1.35,5.49-.39s1.82,3.55,3.34,4.83c2.17,1.81,5.55,0,8.28.77,2.11.58,3.45,2.56,4.88,4.23s3.54,3.23,5.63,2.56A24.49,24.49,0,0,0,582.36,122Z" style="fill:#263238"></path><path d="M556.68,112.22c-1.53-.41-4.66-1.34-5.5-2.65a9.31,9.31,0,0,0-8.18-4.5,7.67,7.67,0,0,0-6.8,6.19,11,11,0,0,0-9.38,6.28,11.88,11.88,0,0,0-.58,1.43,8.39,8.39,0,0,0-.43,7.06c.55,1.37,1.47,2.88.79,4.18s-2.52,1.4-3.92,1.92a5.58,5.58,0,0,0-3.41,6.29,6.78,6.78,0,0,1,.5,2.74,6.07,6.07,0,0,1-1.6,2.4,6.94,6.94,0,0,0,4.27,11.22,9,9,0,0,1,3.21.67c1.09.65,1.58,1.93,2.36,2.93a6,6,0,0,0,6.52,1.91,5.31,5.31,0,0,0,1.29-.68,4.29,4.29,0,0,0,3.84,1.62l-.9-25.41a2.08,2.08,0,0,0,1.56,1.18c4.1.85,4.54-7.56,3.59-9.83a23.86,23.86,0,0,0,4-4.37,17.26,17.26,0,0,0,1.73-8.28C551.13,114.58,557.36,112.4,556.68,112.22Z" style="fill:#263238"></path><path d="M539.92,137.87c-.17-2.58-3.35-3.08-5.56-1.74-1.22.73-2.13,2.18-2,4.92.43,7.31,7.68,5.36,7.68,5.15S540.13,140.89,539.92,137.87Z" style="fill:#ffbf9d"></path><path d="M537.67,143.57s-.12.09-.33.21a1.32,1.32,0,0,1-1,.07,3.14,3.14,0,0,1-1.62-2.74,4.1,4.1,0,0,1,.25-1.84,1.48,1.48,0,0,1,.9-1,.65.65,0,0,1,.77.31c.11.2.07.34.11.36s.15-.14.07-.43a.8.8,0,0,0-.31-.45,1,1,0,0,0-.72-.14,1.78,1.78,0,0,0-1.26,1.21,4.23,4.23,0,0,0-.32,2.06c.13,1.47,1,2.81,2,3a1.43,1.43,0,0,0,1.16-.26C537.67,143.74,537.7,143.58,537.67,143.57Z" style="fill:#ff9a6c"></path><path d="M546.58,110.42a4.53,4.53,0,0,0-1.44,1.25,6.81,6.81,0,0,0-.45,5.07l0,.18-.18,0a7.08,7.08,0,0,0-4.64,4.24,5.69,5.69,0,0,0-.35,1.79,10.19,10.19,0,0,0,.27,1.92,13.7,13.7,0,0,1,.31,2.08,3.38,3.38,0,0,1-.54,2.17A8.78,8.78,0,0,1,536,132a12,12,0,0,0-3.35,2.29,9.07,9.07,0,0,0-2.62,6.17,9.47,9.47,0,0,0,1,4.51c.5,1,.92,1.45.88,1.48s-.12-.1-.32-.32a8.4,8.4,0,0,1-.74-1.07,9.26,9.26,0,0,1-1.23-4.6,9.41,9.41,0,0,1,2.65-6.51,12.74,12.74,0,0,1,3.45-2.4,8.48,8.48,0,0,0,3.38-2.61c.79-1.13.41-2.57.17-3.88a10.44,10.44,0,0,1-.26-2,5.75,5.75,0,0,1,.39-2,7.42,7.42,0,0,1,5-4.44l-.14.23c-.47-2.25-.16-4.23.65-5.28a3.07,3.07,0,0,1,1.12-1A1.59,1.59,0,0,1,546.58,110.42Z" style="fill:#455a64"></path><path d="M535,146.35a5.21,5.21,0,0,1,2.06-1.4h-.16a3.11,3.11,0,0,1,.44-.08A2,2,0,0,1,539,145h0a3.86,3.86,0,0,1,2.14,1.79,4.56,4.56,0,0,1-.45,4.7,3.48,3.48,0,0,1-6.41-1.08A4.33,4.33,0,0,1,535,146.35Z" style="fill:#455a64"></path><path d="M562.36,147.55a1.89,1.89,0,0,0-.13-.82.71.71,0,0,0-.58-.42,8.09,8.09,0,0,0-2.5-.52,2.67,2.67,0,0,0-2.23,1.11,3.93,3.93,0,0,0-.43,1.66,1.57,1.57,0,0,0,.13,1,1.52,1.52,0,0,0,1.06.54,27.37,27.37,0,0,0,2.86.42,1.74,1.74,0,0,0,1.06-.14,1.67,1.67,0,0,0,.64-1.29A13.31,13.31,0,0,0,562.36,147.55Z" style="fill:#ff9a6c"></path><path d="M561.17,150.81a7.45,7.45,0,0,1-2-.28c-.6-.13-1.3-.25-2.1-.46a1.57,1.57,0,0,1-1.11-.92,2.29,2.29,0,0,1,.12-1.49,3.86,3.86,0,0,1,.69-1.26,2.46,2.46,0,0,1,1.12-.79,3.75,3.75,0,0,1,2.24-.06,4.55,4.55,0,0,1,1.82.8,18.45,18.45,0,0,1-1.9-.44,3.69,3.69,0,0,0-2,.14,2.75,2.75,0,0,0-1.5,1.78,1.94,1.94,0,0,0-.13,1.16,1.1,1.1,0,0,0,.78.62c.74.22,1.46.39,2,.56A7.82,7.82,0,0,1,561.17,150.81Z" style="fill:#263238"></path><path d="M481.67,217.6a16,16,0,0,0-1.06-8.14c-1.72-3.64-3.06-6.23-3.93-8.34s-1.72-3.55-3.16-1.53-.48,4.6.48,6.32,2,2.59.29,3.45-6.33-1-8.53-2.11a61.46,61.46,0,0,0-10.26-3.54c-2.78-.67-3.45.67-3.45.67a3.07,3.07,0,0,0-2.78-.57,1.42,1.42,0,0,0-1.15,2l.77.67a1.88,1.88,0,0,0-.1,2.87c1.54,1.44,8.92,5.56,8.92,5.56s-5.92-2.79-7.36-2.6-1.08,1.74-.31,2.22,14,7.47,15.72,8.72,9.36,3,9.36,3l8.06,7,8.06-10.9Z" style="fill:#ffbf9d"></path><path d="M461.58,213.37a60.8,60.8,0,0,1-6.28-3.43c-3.44-1.95-6.25-3.49-6.17-3.64a35.24,35.24,0,0,1,6.45,3.14A34.17,34.17,0,0,1,461.58,213.37Z" style="fill:#ff9a6c"></path><path d="M464.59,210.37a65.51,65.51,0,0,1-6.35-3c-3.48-1.73-6.33-3.06-6.27-3.22a33.47,33.47,0,0,1,6.53,2.7A32.82,32.82,0,0,1,464.59,210.37Z" style="fill:#ff9a6c"></path><path d="M474.8,218.23c0,.05-.53-.27-1-1.09a6,6,0,0,1-.54-3.48,11.17,11.17,0,0,1,1.07-3.31c.39-.79.69-1.25.76-1.22a4.06,4.06,0,0,1-.38,1.38,15.75,15.75,0,0,0-.87,3.23,6.68,6.68,0,0,0,.33,3.23C474.51,217.76,474.87,218.17,474.8,218.23Z" style="fill:#ff9a6c"></path><path d="M540,415l-22.46,20.55,25.42,28.08c2.54-2.59-5.23-22-5.23-22l14-13.58Z" style="fill:#263238"></path><path d="M517.51,435.51l2.35-2.17,23.41,27.93s.58,1.75-.43,2.4Z" style="fill:#455a64"></path><path d="M538.25,441.92c-.14.12-.82-.51-1.87-.78s-2-.12-2-.29.92-.69,2.19-.33S538.41,441.84,538.25,441.92Z" style="fill:#455a64"></path><path d="M539.7,446c-.1.15-.87-.23-1.87-.17s-1.74.48-1.86.34.52-.93,1.76-1S539.83,445.85,539.7,446Z" style="fill:#455a64"></path><path d="M537.69,450.83c-.17-.12.23-.86,1.44-1.23s2,0,1.89.2-.82.13-1.7.41S537.83,451,537.69,450.83Z" style="fill:#455a64"></path><path d="M541.34,438.68c-.18.05-.56-.75-1.31-1.47s-1.55-1.11-1.49-1.29,1.06,0,1.94.83S541.51,438.65,541.34,438.68Z" style="fill:#455a64"></path><path d="M533.6,433l.33,34.3,42.67-.18c-.27-4.08-22.38-12.17-22.38-12.17l.7-22Z" style="fill:#263238"></path><path d="M533.92,467.36l0-3.67,41,1.39s1.9.83,1.68,2.17Z" style="fill:#455a64"></path><path d="M554.91,454.72c0,.21-1,.31-2.07,1s-1.56,1.55-1.76,1.47.12-1.28,1.37-2.08S555,454.53,554.91,454.72Z" style="fill:#455a64"></path><path d="M559.39,456.55c.05.2-.85.56-1.55,1.45s-.91,1.81-1.11,1.81-.35-1.19.55-2.27S559.39,456.35,559.39,456.55Z" style="fill:#455a64"></path><path d="M562,461.9c-.19,0-.48-1,0-2.14s1.5-1.6,1.59-1.43-.51.79-.93,1.73S562.17,461.88,562,461.9Z" style="fill:#455a64"></path><path d="M554.51,449.69c-.08.19-1-.09-2.22,0s-2.09.46-2.2.29.77-.93,2.16-1S554.62,449.53,554.51,449.69Z" style="fill:#263238"></path><path d="M536.46,261.11H529.9s-14.59,28.32-14.54,46.64c0,8.43,11.27,73.09,11.27,73.09s3.27,47.09,5.11,71h0l23.5-.71,5.1-68.82,1.52-56.21,10-64.51Z" style="fill:#263238"></path><path d="M588.51,276.52s11.53,69,9.06,87.71c-1.6,12.15-43.27,72.86-43.27,72.86L535.6,415l29.54-57.3-10.62-48.52,12.64-47.64,19.66.23Z" style="fill:#263238"></path><path d="M526.42,382.66a1.19,1.19,0,0,1,.05.32q0,.34.09,1c.08.87.19,2.11.33,3.73.27,3.29.66,8.07,1.16,14.13,1,12.16,2.32,29.45,4,50l-.27-.24,23.5-.73-.26.26c.74-10.51,1.53-21.81,2.36-33.49.62-8.71,1.22-17.21,1.8-25.43.3-4.1.59-8.14.87-12.09s.25-7.83.38-11.61c.46-15.12.87-28.74,1.21-40.19s.67-20.67.87-27.09c.12-3.18.21-5.66.27-7.36,0-.83.06-1.46.08-1.92s.05-.65.05-.65,0,.22,0,.66,0,1.08,0,1.91c0,1.71-.09,4.19-.15,7.37-.17,6.42-.4,15.67-.69,27.1s-.68,25.07-1.09,40.19c-.12,3.78-.17,7.66-.36,11.62s-.56,8-.85,12.09c-.58,8.22-1.18,16.72-1.8,25.44-.83,11.67-1.63,23-2.38,33.49l0,.25h-.25l-23.5.68h-.25l0-.24c-1.53-20.58-2.83-37.88-3.74-50.05-.43-6.06-.77-10.84-1-14.14-.11-1.62-.19-2.87-.25-3.74,0-.41,0-.72-.05-1S526.42,382.66,526.42,382.66Z" style="fill:#455a64"></path><path d="M524.52,190.2l8.79,68.45,4.3,3.38c9.2,4.32,29.61,3.94,42.16.29,4.56-42,3.07-71.79-5.87-86.72l-9.53-4.23c-7.57,8.31-17.31,5.16-25.81-3.05Z" style="fill:#fff"></path><path d="M558.26,231.4a26.94,26.94,0,0,1,1.69-2.61,44.51,44.51,0,0,0,3.5-6.59,43.13,43.13,0,0,0,2.27-7.11,29.54,29.54,0,0,1,.69-3,11.59,11.59,0,0,1-.29,3.11,33.54,33.54,0,0,1-2.14,7.25,34,34,0,0,1-3.69,6.6A12.34,12.34,0,0,1,558.26,231.4Z" style="fill:#263238"></path><path d="M537.88,163.33,534,169.39l-18,6.84,4.84,37.41,4.36,21.79.14,8.75c-1,2.79-10,22-13.73,39.14l-4.76,18.29s27.68,7.21,33.45,3.83,8.49-36.59,10.51-44.18,4.85-30.11,3.13-42-4.63-29.52-6-35.58S537.88,163.33,537.88,163.33Z" style="fill:#800020"></path><path d="M564.27,165.53l2.88,3.94,11.9,5.31s6.85,22.85,6.85,33.07c0,17.76-.32,45.1-.28,47.61s11.09,37.18,10.26,39.29-11.79,3.57-11.79,3.57-5.88-29.53-6.06-39.6-1.06-34.84-3.43-47S564.39,172,564.39,172Z" style="fill:#800020"></path><path d="M578.37,264.34a.87.87,0,0,1,0-.25c0-.2,0-.44,0-.74,0-.69,0-1.63,0-2.82,0-2.51,0-6,0-10.4,0-8.78.2-20.91.18-34.3,0-1.67,0-3.33-.06-5s-.23-3.21-.39-4.78c-.31-3.15-.62-6.18-1-9s-.74-5.61-1.23-8.14a33.83,33.83,0,0,0-2.13-6.81,90.08,90.08,0,0,0-4.69-9.31l-1.44-2.45-.37-.64c-.08-.15-.12-.22-.11-.23a1.75,1.75,0,0,1,.16.2l.42.61c.36.54.88,1.35,1.52,2.41a77.78,77.78,0,0,1,4.87,9.26,34.72,34.72,0,0,1,2.22,6.88c.51,2.54.92,5.27,1.29,8.16s.69,5.91,1,9c.16,1.57.38,3.17.4,4.82s.05,3.29.07,5c0,13.4-.2,25.52-.35,34.3-.09,4.36-.17,7.9-.23,10.4q-.06,1.79-.09,2.82c0,.3,0,.54,0,.74A.87.87,0,0,1,578.37,264.34Z" style="fill:#263238"></path><path d="M553.3,244.18a3.64,3.64,0,0,1-.13-.79c-.07-.51-.15-1.28-.23-2.26-.17-2-.34-4.84-.34-8.38,0-1.77,0-3.71.13-5.78a25.45,25.45,0,0,0-.92-6.49,108.89,108.89,0,0,0-5.22-14.26c-2.17-5-4.41-9.61-6.47-13.82a56.54,56.54,0,0,1-2.77-6.09,52.9,52.9,0,0,1-1.51-5.61c-.75-3.46-1.18-6.3-1.46-8.26-.14-1-.23-1.74-.29-2.26a4.27,4.27,0,0,1-.05-.79,4.78,4.78,0,0,1,.16.78c.1.56.23,1.31.39,2.24.35,2,.83,4.77,1.63,8.21a57.56,57.56,0,0,0,1.56,5.55,59.5,59.5,0,0,0,2.79,6c2.1,4.21,4.35,8.86,6.52,13.83a102.37,102.37,0,0,1,5.21,14.35,25.66,25.66,0,0,1,.89,6.63c-.12,2.07-.18,4-.2,5.77,0,3.52.06,6.38.16,8.35.05.95.1,1.7.13,2.27A4.41,4.41,0,0,1,553.3,244.18Z" style="fill:#263238"></path><path d="M600.38,232.39l-1.64-1.1-7.21-42.79c-2.48-9.38-9.47-11.79-12.48-13.72l3.23,19,1.52,50.81A117.78,117.78,0,0,0,596.16,250c5.68,2,17,4.14,17,4.14l3.63-16.91Z" style="fill:#800020"></path><path d="M521.19,176.24,520,174.7c-.86,0-6.64,1.89-9.18,6s-11.32,42.27-11.32,42.27l-17.17-7.56c.26,6.46-1.51,9.87-7.27,13.17,0,0,18.74,16.81,29.82,17.84,10.73,1,12.4-8,15.61-17.29,2.79-8.13,6.86-29.32,6.86-29.32S527.73,176,521.19,176.24Z" style="fill:#800020"></path><path d="M525.19,194.64a31.7,31.7,0,0,1-.3-3.17,21.09,21.09,0,0,0-1.95-7.3,11.74,11.74,0,0,0-5.2-5.28,15.51,15.51,0,0,0-3-.91,2.2,2.2,0,0,1,.87,0,7.37,7.37,0,0,1,2.3.57,11.35,11.35,0,0,1,5.54,5.39,18.76,18.76,0,0,1,1.84,7.52A11.71,11.71,0,0,1,525.19,194.64Z" style="fill:#263238"></path><path d="M583.77,185.16a3.33,3.33,0,0,1,.23.67c.15.5.33,1.14.57,1.94s.48,1.89.75,3.11.52,2.61.78,4.16a86.33,86.33,0,0,1,.95,11c.11,4.15,0,8.72-.17,13.49-.4,9.57-.75,18.21-.85,24.47-.07,3.14-.09,5.67-.11,7.42,0,.83,0,1.5,0,2a3.81,3.81,0,0,1,0,.7,2.76,2.76,0,0,1-.07-.7c0-.52,0-1.19-.06-2-.05-1.75-.09-4.29-.08-7.42,0-6.27.28-14.93.68-24.49.18-4.77.3-9.32.22-13.46a91.67,91.67,0,0,0-.82-10.94c-.23-1.54-.43-2.94-.7-4.16s-.43-2.27-.65-3.12l-.46-2A3,3,0,0,1,583.77,185.16Z" style="fill:#263238"></path><rect x="580.1" y="204.43" width="10.56" height="4.71" style="fill:#fff"></rect><path d="M590.66,209.14a9.68,9.68,0,0,1-.1-1.33c0-.82-.08-2-.11-3.38l.21.21c-2.73.05-6.46.08-10.56.08l.29-.29h0v2.41c0,.78,0,1.54,0,2.28l-.27-.28c3,0,5.61.08,7.49.13s3,.1,3.07.15a25.5,25.5,0,0,1-2.88.14c-1.87.05-4.55.11-7.68.13h-.28v-.27c0-.74,0-1.5,0-2.28v-2.41h0l.29-.29c4.1,0,7.83,0,10.56.08h.21v.2c0,1.5-.08,2.7-.11,3.51A6,6,0,0,1,590.66,209.14Z" style="fill:#263238"></path><g style="opacity:0.30000000000000004"><path d="M535.1,177c.12.63.07,11.36,2.52,16s11.36,25.6,12.23,30.5,2.82,13.22,2.82,13.22a60.39,60.39,0,0,0,.29-11.13,42.71,42.71,0,0,0-1.67-7.66c-1.68-6.28-9.65-23.59-11.58-27.65S535.1,177,535.1,177Z"></path></g><g style="opacity:0.30000000000000004"><rect x="580.52" y="209.14" width="6.5" height="2.08"></rect></g><path d="M609.65,220.42s-22.89,26-27.5,30.74a54.1,54.1,0,0,1-6.9,5.4l7.23.59Z" style="fill:#e0e0e0"></path><polygon points="611.99 217.04 650.54 213.64 651.79 218.4 616.06 259.09 581.34 261.13 578.16 258.28 611.99 217.04" style="fill:#e0e0e0"></polygon><path d="M651.9,217.63a4.88,4.88,0,0,1-.73.12l-2.12.28-7.86.93-26.59,3,.17-.09-4.42,5.29-20.22,24.08L584,258.47l-1.69,2-.46.5a1.83,1.83,0,0,1-.16.16s0-.07.12-.19l.42-.54,1.62-2,6-7.36L610,226.81l4.42-5.29.07-.08h.1l26.61-2.81,7.88-.77,2.13-.19A3.45,3.45,0,0,1,651.9,217.63Z" style="fill:#263238"></path><path d="M650.69,214.62a6.26,6.26,0,0,1-.74.11l-2.15.23-8,.79-27,2.49.18-.09-4.62,5.7c-7.92,9.72-15.32,18.33-20.76,24.49-2.71,3.09-4.94,5.55-6.49,7.25l-1.79,1.94-.48.5-.17.16s0-.07.13-.2l.44-.53,1.72-2,6.37-7.36c5.36-6.22,12.71-14.86,20.63-24.57,1.58-2,3.14-3.87,4.62-5.7l.07-.09h.11l27-2.31,8-.64,2.16-.14A3.87,3.87,0,0,1,650.69,214.62Z" style="fill:#263238"></path><path d="M579.81,259.44s0-.07.13-.19l.42-.54,1.65-2,6.17-7.35,20.5-24.14,4.82-5.65.07-.08h.11L640.2,217l7.83-.67,2.12-.16a3.66,3.66,0,0,1,.73,0,3.61,3.61,0,0,1-.72.12l-2.11.24-7.82.83L613.72,220l.17-.08-4.82,5.65-20.61,24-6.29,7.25-1.73,1.95-.46.5Z" style="fill:#263238"></path><path d="M633.49,239.79c-2.44-.36-4.61-.83-7-1.19a7.76,7.76,0,0,0-2.2-.12,2.69,2.69,0,0,0-1.89,1.08,1.51,1.51,0,0,0-.18,1.29,1.43,1.43,0,0,0,.54.55,3.22,3.22,0,0,0,1.51.5l5.69,1.14a7.59,7.59,0,0,0,3.41.14,2.31,2.31,0,0,0,1.07-.59,1.56,1.56,0,0,0,.46-1.18A1.75,1.75,0,0,0,633.49,239.79Z" style="fill:#ffbf9d"></path><path d="M632.7,243.64c-2.15-.37-4.06-.85-6.2-1.22a6.33,6.33,0,0,0-1.93-.13,2.23,2.23,0,0,0-1.62,1.07,1.5,1.5,0,0,0-.15,1.21,1.3,1.3,0,0,0,.4.54,3.44,3.44,0,0,0,1.46.6l5,1.15a5.73,5.73,0,0,0,3,.16,1.93,1.93,0,0,0,.92-.58,1.65,1.65,0,0,0,.36-1.18A1.78,1.78,0,0,0,632.7,243.64Z" style="fill:#ffbf9d"></path><path d="M630.89,246.36c-1.73-.18-3.3-.49-5-.68a3.69,3.69,0,0,0-1.52,0,1.61,1.61,0,0,0-1.07,1.18,1.8,1.8,0,0,0,.1,1.2,1.43,1.43,0,0,0,.41.49,2.61,2.61,0,0,0,1.24.47l4.1.71a3.61,3.61,0,0,0,2.35-.1,1.36,1.36,0,0,0,.61-.64,1.89,1.89,0,0,0,.07-1.19A2,2,0,0,0,630.89,246.36Z" style="fill:#ffbf9d"></path><path d="M633.37,243.67a23.36,23.36,0,0,1-5-.77,22,22,0,0,1-4.93-1.34,23.2,23.2,0,0,1,5.05.77A22.65,22.65,0,0,1,633.37,243.67Z" style="fill:#ff9a6c"></path><path d="M632.24,247.19a15,15,0,0,1-4.18-.5,15.82,15.82,0,0,1-4.07-1.06,15.5,15.5,0,0,1,4.18.5A15.82,15.82,0,0,1,632.24,247.19Z" style="fill:#ff9a6c"></path><g style="opacity:0.30000000000000004"><path d="M522.45,222.34l2.88-18.26s2.93,22.95-.14,31.35Z"></path></g><path d="M505.56,226.31a35.37,35.37,0,0,1-3.27-2c-1.81-1.06-3.39-1.73-3.34-1.87a9,9,0,0,1,3.6,1.42A9.07,9.07,0,0,1,505.56,226.31Z" style="fill:#263238"></path><polygon points="517.25 265.17 512.69 270.1 532.99 273.57 536.34 267.87 517.25 265.17" style="fill:#800020"></polygon><path d="M517.25,265.17a8.23,8.23,0,0,1,1.4.12l4,.49,13.76,1.84.37.05-.19.33c-1.06,1.79-2.18,3.71-3.34,5.7l-.09.15-.18,0-.7-.11c-7.84-1.35-14.87-2.58-19.59-3.44l-.31-.06.22-.23,3.43-3.59.92-.93c.21-.21.32-.31.33-.29a4.21,4.21,0,0,1-.3.38l-.87,1-3.26,3.66-.1-.28c4.74.75,11.78,1.92,19.62,3.26l.7.12-.27.13c1.17-2,2.3-3.9,3.35-5.7l.18.38-13.62-2-4-.64C517.77,265.29,517.26,265.19,517.25,265.17Z" style="fill:#263238"></path></g><g id="freepik--character-2--inject-105"><path d="M407.4,432.78l-.82,21.47s21.55,8,21.79,12l-41.69-.09-.1-33.5Z" style="fill:#263238"></path><path d="M393.7,452.42a1.7,1.7,0,0,0-1.19,1.94,1.64,1.64,0,0,0,1.92,1.18,1.8,1.8,0,0,0,1.24-2.06,1.69,1.69,0,0,0-2.13-1" style="fill:#e0e0e0"></path><path d="M386.68,466.19l.12-3.38,39.93,1.34s1.85.82,1.64,2.12Z" style="fill:#455a64"></path><path d="M407.26,454c0,.2-1,.29-2,.94s-1.54,1.51-1.72,1.43.11-1.26,1.34-2S407.3,453.85,407.26,454Z" style="fill:#fff"></path><path d="M411.63,455.86c0,.19-.84.54-1.53,1.4S409.2,459,409,459s-.33-1.16.55-2.22S411.62,455.66,411.63,455.86Z" style="fill:#fff"></path><path d="M414.1,461.09c-.18.05-.47-1,.06-2.08s1.48-1.56,1.56-1.39-.5.76-.92,1.69S414.3,461.07,414.1,461.09Z" style="fill:#fff"></path><path d="M406.9,449.12c-.08.19-1-.09-2.17,0s-2.05.44-2.15.26.76-.89,2.11-1S407,449,406.9,449.12Z" style="fill:#fff"></path><path d="M359.25,432.91,357,458.81l4.12,21a2.66,2.66,0,0,1-2.28,3.15h0a2.67,2.67,0,0,1-2.29-.83c-3.71-4.05-17.31-19-17-20.91.32-2.18.57-27.47.57-27.47Z" style="fill:#263238"></path><path d="M358.83,483l-19.21-23.49-.07,1.1a4,4,0,0,0,.78,2.65c1.52,2,5.85,7.59,16.13,18.9a2.65,2.65,0,0,0,2.37.84Z" style="fill:#455a64"></path><g style="opacity:0.6000000000000001"><path d="M345.48,451.44a1.61,1.61,0,0,1,.3,2.13,1.54,1.54,0,0,1-2.1.32,1.7,1.7,0,0,1-.32-2.25,1.6,1.6,0,0,1,2.23-.09" style="fill:#fff"></path></g><path d="M353.63,471.25a5.74,5.74,0,0,1,5.43-2.25c0-.07-.29-.29-.89-.41a4.25,4.25,0,0,0-4.2,1.74C353.63,470.84,353.57,471.22,353.63,471.25Z" style="fill:#fff"></path><path d="M355.26,474.84a21.3,21.3,0,0,1,2.36-1,21.25,21.25,0,0,1,2.56-.16,2.94,2.94,0,0,0-2.68-.39C355.94,473.66,355.12,474.76,355.26,474.84Z" style="fill:#fff"></path><path d="M350.48,466.57c.11.14,1.47-1.09,3.55-1.74s3.89-.47,3.91-.65a5.93,5.93,0,0,0-4.08.11A5.86,5.86,0,0,0,350.48,466.57Z" style="fill:#fff"></path><path d="M350.5,458.64c.06.16,1.54-.34,3.4-.29s3.32.6,3.39.44a5.13,5.13,0,0,0-3.37-1A5.26,5.26,0,0,0,350.5,458.64Z" style="fill:#fff"></path><path d="M351,451a13,13,0,0,1,3.54-.41,13.4,13.4,0,0,1,3.38,1.09c.05,0-.22-.4-.79-.78a5.69,5.69,0,0,0-2.54-.87,5.57,5.57,0,0,0-2.66.36C351.26,450.68,350.94,451,351,451Z" style="fill:#fff"></path><path d="M354.55,449.17a2,2,0,0,0,.1-1,7,7,0,0,0-.61-2.62,3,3,0,0,0-1.21-1.52,1.05,1.05,0,0,0-1.22.16,1.72,1.72,0,0,0-.48,1.14A3.77,3.77,0,0,0,354.2,449a4.36,4.36,0,0,0,4.42-2,1.5,1.5,0,0,0,.16-1.25,1.06,1.06,0,0,0-1.06-.62,3.57,3.57,0,0,0-1.77.78,7.64,7.64,0,0,0-1.9,1.9,2.28,2.28,0,0,0-.46.87,12.32,12.32,0,0,1,2.58-2.44,3.62,3.62,0,0,1,1.56-.64.55.55,0,0,1,.58.34,1,1,0,0,1-.15.81,3.89,3.89,0,0,1-3.86,1.7,3.27,3.27,0,0,1-2.65-3.09,1.26,1.26,0,0,1,.31-.82.59.59,0,0,1,.67-.1,2.8,2.8,0,0,1,1,1.28A9.88,9.88,0,0,1,354.55,449.17Z" style="fill:#fff"></path><path d="M367.83,155.43l-.55-45.16c-.5-11.23,5.62-20.88,16.85-21.08l1,0a20.09,20.09,0,0,1,19.26,19.28c.38,9.74.68,20.5.4,25.7-.58,10.77-11.43,12-11.43,12s-.07,6.55-.06,9.72l-8.67,12v.65Z" style="fill:#ffbf9d"></path><path d="M393.4,146.23a26.13,26.13,0,0,1-13.86-4.73s3,8.24,13.84,7.71Z" style="fill:#ff9a6c"></path><path d="M400.23,118.72a1.54,1.54,0,0,1-1.55,1.49,1.47,1.47,0,0,1-1.52-1.45,1.53,1.53,0,0,1,1.54-1.49A1.47,1.47,0,0,1,400.23,118.72Z" style="fill:#263238"></path><path d="M401.94,113.19c-.2.19-1.33-.72-3-.78s-2.9.71-3.07.5.12-.45.67-.81a4.22,4.22,0,0,1,2.47-.65,4.1,4.1,0,0,1,2.37.87C401.88,112.73,402,113.1,401.94,113.19Z" style="fill:#263238"></path><path d="M385.41,118.72a1.53,1.53,0,0,1-1.54,1.49,1.47,1.47,0,0,1-1.53-1.45,1.53,1.53,0,0,1,1.54-1.49A1.47,1.47,0,0,1,385.41,118.72Z" style="fill:#263238"></path><path d="M385.69,112.9c-.2.19-1.33-.72-3-.78s-2.9.71-3.07.5.12-.44.67-.81a4.22,4.22,0,0,1,2.47-.65,4.1,4.1,0,0,1,2.37.87C385.63,112.45,385.79,112.82,385.69,112.9Z" style="fill:#263238"></path><path d="M391.11,125.87a11,11,0,0,1,2.71-.37c.42,0,.82-.1.91-.38a2.23,2.23,0,0,0-.23-1.27c-.36-1-.73-2.13-1.12-3.27-1.55-4.65-2.65-8.48-2.46-8.54s1.59,3.67,3.14,8.32c.37,1.15.73,2.25,1.06,3.29a2.47,2.47,0,0,1,.16,1.67,1.07,1.07,0,0,1-.73.59,2.73,2.73,0,0,1-.72.07A10.41,10.41,0,0,1,391.11,125.87Z" style="fill:#263238"></path><path d="M386.44,107.74c-.24.42-1.83-.09-3.79-.22s-3.59.12-3.77-.33c-.08-.21.26-.58,1-.89a6.54,6.54,0,0,1,5.76.42C386.26,107.13,386.55,107.55,386.44,107.74Z" style="fill:#263238"></path><path d="M402.22,108.32c-.36.37-1.7-.06-3.32-.12s-3,.18-3.31-.23c-.13-.19.1-.56.71-.9a5.5,5.5,0,0,1,5.33.28C402.2,107.75,402.37,108.14,402.22,108.32Z" style="fill:#263238"></path><path d="M367.83,118.28c-.18-.08-7.31-2.49-7.38,4.88s7.35,5.93,7.37,5.72S367.83,118.28,367.83,118.28Z" style="fill:#ffbf9d"></path><path d="M365.59,126.06s-.13.09-.35.19a1.3,1.3,0,0,1-1,0,3.17,3.17,0,0,1-1.44-2.87,4.13,4.13,0,0,1,.37-1.83,1.48,1.48,0,0,1,1-1,.64.64,0,0,1,.75.36c.1.2.05.35.09.36s.16-.12.1-.42a.84.84,0,0,0-.28-.47,1,1,0,0,0-.71-.19,1.78,1.78,0,0,0-1.35,1.13,4.39,4.39,0,0,0-.47,2.05c0,1.49.78,2.89,1.85,3.2a1.34,1.34,0,0,0,1.17-.18C365.57,126.24,365.61,126.08,365.59,126.06Z" style="fill:#ff9a6c"></path><path d="M419.32,98.82a1.74,1.74,0,0,0-.81-1,5.31,5.31,0,0,0-2.76-.48A15.67,15.67,0,0,1,409,95.54a7.48,7.48,0,0,0,2-1.37,4.62,4.62,0,0,0,1.39-4.59,1.05,1.05,0,0,0-.57-.72c-.48-.15-.9.32-1.24.69a4,4,0,0,1-3.77,1.54,6.48,6.48,0,0,1-2.8-.86l-.09-.1L402.83,89h0c-2.74-2.78-5.1-4.71-7.55-5.73-3.59-1.49-9.6-2.15-13.37-1.21s-7.17,4-7.74,7.8C372.08,88,368.91,88,366.34,89l-.07,0c-2.87,1-4.52,4-5.4,6.89-.05.16-.09.32-.13.48a11.41,11.41,0,0,1-3.89,3.71c-.28.16-.6.35-.64.67a.94.94,0,0,0,.49.77,5.69,5.69,0,0,0,2.3,1,14.06,14.06,0,0,1-1,2c-.33.54-.72,1.19-.45,1.76a1.21,1.21,0,0,0,1.26.57,3.53,3.53,0,0,0,1.33-.59c-.32.76-.65,1.52-1,2.28a6.81,6.81,0,0,0,3.11-.17c.58,2.73,1,7.78,1.66,9.63,2,.06,2.43-.15,3.42.19,1.27.44.76,2.7,2.43,2.07.85-.32,2.18-3.51,2.48-4.37a42.21,42.21,0,0,0,2-17.81,13.73,13.73,0,0,1,4.22-3l-.13.12c3-1,6.45-2,9.3-.56,2.2,1.12,3.48,3.44,5.12,5.3a15.44,15.44,0,0,0,11.34,5.67c.38,3.27.45,8.59.57,11.63l2.66-6v0c.21-.36.39-.72.56-1.07L408,110v0c.27-.57.53-1.15.87-1.72l0,0a1.9,1.9,0,0,0,2.8-2.51,4.18,4.18,0,0,0-.9-.93,3,3,0,0,0,2.85.77,2.34,2.34,0,0,0,1.69-2.31,2,2,0,0,0-1.17-1.62,6.73,6.73,0,0,0,3.86-.8C418.81,100.48,419.56,99.78,419.32,98.82Z" style="fill:#263238"></path><path d="M377.54,91.1a12.87,12.87,0,0,0-1.09,1,7.8,7.8,0,0,0-1.7,3.57,14.24,14.24,0,0,0-.31,2.74c0,1,.06,2.06.12,3.18a27.66,27.66,0,0,1,0,3.54,12.18,12.18,0,0,1-.26,1.87,4,4,0,0,1-.79,1.8,1.63,1.63,0,0,1-1.53.5,2.48,2.48,0,0,1-1.36-.79,5.74,5.74,0,0,1-1-2.76l.23,0a9.18,9.18,0,0,1-1.34,2.25,3.2,3.2,0,0,1-2.11,1.12,2.09,2.09,0,0,1-1.11-.21,1.81,1.81,0,0,1-.75-.75,1.85,1.85,0,0,1-.22-1,1.32,1.32,0,0,1,.36-.84l.11.1a7,7,0,0,1-2.34,1.72,5.48,5.48,0,0,1-.72.27.88.88,0,0,1-.26.06l.24-.1c.17-.07.41-.16.7-.31a7,7,0,0,0,2.26-1.74l.12.11a1.37,1.37,0,0,0-.09,1.6,1.66,1.66,0,0,0,.67.67,1.92,1.92,0,0,0,1,.17,3,3,0,0,0,2-1.06,8.79,8.79,0,0,0,1.29-2.2l.16-.35.07.38a5.29,5.29,0,0,0,1,2.63,2.18,2.18,0,0,0,1.22.71,1.36,1.36,0,0,0,1.3-.42,3.67,3.67,0,0,0,.72-1.69,11.56,11.56,0,0,0,.26-1.82,29.23,29.23,0,0,0,0-3.51c-.06-1.13-.12-2.2-.09-3.2a13.05,13.05,0,0,1,.34-2.78,7.58,7.58,0,0,1,1.8-3.59A4.54,4.54,0,0,1,377.54,91.1Z" style="fill:#455a64"></path><path d="M410.83,102l-.09.07-.27.2a5,5,0,0,1-.46.28,4.63,4.63,0,0,1-.67.34,9.51,9.51,0,0,1-4.63.78,12.18,12.18,0,0,1-6.48-2.48,21.18,21.18,0,0,1-5.53-6.51c-.77-1.32-1.39-2.67-2.09-3.91a14.1,14.1,0,0,0-2.37-3.32,7.4,7.4,0,0,0-3.09-1.92,5.21,5.21,0,0,0-1.64-.21,5.54,5.54,0,0,0-1.5.27,6.17,6.17,0,0,0-2.27,1.33,6.28,6.28,0,0,0-1.24,1.57,7.31,7.31,0,0,0-.57,1.61s0,0,0-.11,0-.2.05-.33a5.65,5.65,0,0,1,.43-1.22,6.26,6.26,0,0,1,3.53-3,5.53,5.53,0,0,1,1.55-.29,5.07,5.07,0,0,1,1.71.2,7.44,7.44,0,0,1,3.19,2,14,14,0,0,1,2.43,3.36c.7,1.25,1.33,2.59,2.09,3.9a21.36,21.36,0,0,0,5.44,6.45,12.12,12.12,0,0,0,6.37,2.49,9.6,9.6,0,0,0,4.57-.69A16.34,16.34,0,0,0,410.83,102Z" style="fill:#455a64"></path><path d="M392.44,131a12.18,12.18,0,0,1-2.33,0,11.41,11.41,0,0,1-2.32.07,3.71,3.71,0,0,1,2.31-.6A3.67,3.67,0,0,1,392.44,131Z" style="fill:#263238"></path><path d="M425.49,281.2l0,0c-.14-2.88-1.57-12.21-1.89-14.58l-74-4.16-2.94,23.19-5.25,81.13-7.14,84.12,28.13,1.22s8.81-65.64,9.5-74.73c.76-10.11,12.7-72.86,12.7-72.86l2.17-.55-1.34,147.09h25.9s14-158.06,14.23-163.68C425.58,285.24,425.57,283.18,425.49,281.2Z" style="fill:#800020"></path><path d="M423.91,268.92c2.86-.87,3.66-6.11,1.65-11.44l-7.07-40-3.55-57.33L412,159l-18.25-6.31c-1.23,3.83-7.41,6.43-12.8,6.73-10,.22-15.23-8.33-15.23-8.33l-.08,0a115,115,0,0,0-14.91,6.4c-2.42,1-11.29,6-15.74,11.23-7.29,8.54-6.35,25.92-6.35,25.92l18,13c.2-.92.47-2.21.78-3.65v0l3.1,33.73-4.4,15.4a8.88,8.88,0,0,0,8,11.29Z" style="fill:#800020"></path><path d="M424.15,268.06a3.75,3.75,0,0,1-.76.06l-2.18.06c-1.9,0-4.64.06-8,.05-6.78,0-16.14-.21-26.47-.76S367,266.1,360.3,265.39c-3.37-.35-6.09-.66-8-.91l-2.17-.29a3.66,3.66,0,0,1-.75-.14,3.74,3.74,0,0,1,.77,0l2.17.2,8,.75c6.74.61,16.07,1.36,26.4,1.92s19.67.8,26.44.91l8,.11,2.19,0A4.48,4.48,0,0,1,424.15,268.06Z" style="fill:#263238"></path><path d="M328.68,194.71c-.8.8.49,45.95,5.26,51,9.12,9.68,29.35,18.34,29.35,18.34l14.62-13.31-22.37-20.94L351.44,198Z" style="fill:#800020"></path><path d="M409.05,250.75l-5.2,7.35s-13,13.72-13.75,17.06-.49,14.5,0,15.5,2.26.56,2.26.56,2.23,3.23,3.91,2.34a2.45,2.45,0,0,0,1.34-2.56s2.11,3.34,3.23,2.12,1.78-2.12,1.78-3.57c0,0,2.79,1,3-.23s2.47-7.69,2.47-7.69,4.23-3.46,4.9-7.7,1.22-7.8,1.22-7.8l5.91-5.58Z" style="fill:#ffbf9d"></path><path d="M377,251.53l6.08,6.57s13,13.72,13.76,17.06.48,14.5,0,15.5-2.27.56-2.27.56-2.23,3.23-3.9,2.34a2.43,2.43,0,0,1-1.34-2.56s-2.12,3.34-3.24,2.12-1.78-2.12-1.78-3.57c0,0-2.79,1-3-.23s-2.46-7.69-2.46-7.69-4.23-3.46-4.9-7.7-1.23-7.8-1.23-7.8l-7-4.61Z" style="fill:#ffbf9d"></path><rect x="368.2" y="259.07" width="19.43" height="2.95" transform="translate(-71.58 167.51) rotate(-22.89)" style="fill:#e0e0e0"></rect><rect x="399" y="261.01" width="19.43" height="2.95" transform="translate(253.65 -197.85) rotate(38.67)" style="fill:#e0e0e0"></rect><path d="M414.94,160.15s9.11,2.62,14.13,15.55c3.78,9.72,14,50.21,11.6,58.86-2.42,8.8-21.87,28.63-21.87,28.63l-12.67-12.44,12.59-18.61s-10.64-53.64-10-54.56S414.94,160.15,414.94,160.15Z" style="fill:#800020"></path><path d="M348.39,256.46l.27.11.78.37,3,1.47,10.94,5.49-.21,0,14.59-13.36v.37c-3.9-3.65-8.16-7.64-12.6-11.78L355.37,230l-.06-.06,0-.09c-1.71-11.47-3.2-21.44-4.27-28.58-.51-3.53-.92-6.35-1.2-8.34-.13-.95-.23-1.69-.3-2.24l-.07-.58c0-.13,0-.19,0-.2a.63.63,0,0,1,.06.2c0,.15.06.34.11.57.09.54.22,1.28.38,2.22.32,2,.78,4.81,1.34,8.32,1.12,7.14,2.67,17.09,4.46,28.56l-.07-.15,9.78,9.15,12.58,11.8.2.18-.2.18L363.41,264.2l-.1.09-.11-.06-10.87-5.64L349.39,257l-.75-.42C348.47,256.53,348.38,256.47,348.39,256.46Z" style="fill:#263238"></path><path d="M426.09,255.69a5.5,5.5,0,0,1-.46.54l-1.4,1.49-5.31,5.58-.11.11-.12-.11L406,250.91l-.14-.13.11-.16,10.83-16.2,0,.13c.06-1.13.12-2.33.19-3.55.73-14.13.85-26.94.78-36.22-.06-4.6-.11-8.34-.15-11,0-1.26,0-2.26-.05-3V180a1,1,0,0,1,0-.26,1.11,1.11,0,0,1,0,.26c0,.2,0,.46.05.77,0,.73.09,1.72.15,3,.11,2.59.24,6.34.32,11,.16,9.28.1,22.1-.63,36.25-.07,1.21-.13,2.42-.19,3.55v.07l0,.06c-3.9,5.79-7.58,11.27-10.87,16.17l0-.3,12.61,12.5h-.22l5.42-5.47,1.45-1.44A4.22,4.22,0,0,1,426.09,255.69Z" style="fill:#263238"></path><path d="M363.68,153.11c.27-.51,2.65-5.83,2.65-5.83l15.36,12.12,12.08-9.87,2.14,3.93-14.72,13.09Z" style="fill:#800020"></path><path d="M390.83,266.6a.82.82,0,0,1,0-.28c0-.21,0-.48-.07-.81-.05-.76-.12-1.8-.2-3.13-.16-2.72-.43-6.65-.78-11.5-.7-9.71-1.9-23.11-3.3-37.9s-2.58-28.19-3.23-37.91c-.33-4.86-.56-8.79-.68-11.51,0-1.33-.09-2.38-.12-3.14,0-.33,0-.6,0-.81a1.16,1.16,0,0,1,0-.28,1.14,1.14,0,0,1,0,.27l.07.82c.06.75.13,1.8.23,3.12.17,2.72.46,6.65.84,11.5.74,9.71,2,23.1,3.38,37.9s2.54,28.19,3.14,37.91c.31,4.86.52,8.8.62,11.52,0,1.33.08,2.38.1,3.13,0,.34,0,.6,0,.82A1.23,1.23,0,0,1,390.83,266.6Z" style="fill:#263238"></path><rect x="394.34" y="188.38" width="18.27" height="7.51" style="fill:#fff"></rect><path d="M412.63,195.91H394.31v-7.56h18.32Zm-18.27,0h18.22V188.4H394.36Z" style="fill:#263238"></path><path d="M381.11,158.76a3.43,3.43,0,0,1-.59.82c-.4.51-1,1.23-1.75,2.11l-1.22,1.44-.69.8a2.5,2.5,0,0,1-.91.8,1.42,1.42,0,0,1-1.33-.23,7.07,7.07,0,0,1-1-.83l-1.84-1.8c-2.52-2.47-4.79-4.72-6.41-6.37-.81-.83-1.46-1.5-1.9-2s-.67-.75-.64-.78a4.47,4.47,0,0,1,.79.63c.48.43,1.17,1.07,2,1.86,1.69,1.58,4,3.79,6.51,6.26l1.84,1.8a6.91,6.91,0,0,0,.87.79.94.94,0,0,0,.88.19,2.33,2.33,0,0,0,.75-.65c.24-.27.48-.53.7-.79l1.28-1.39c.78-.85,1.42-1.54,1.87-2A3.69,3.69,0,0,1,381.11,158.76Z" style="fill:#263238"></path><path d="M397.27,153.84a11.08,11.08,0,0,1-1.41,2.63,33.85,33.85,0,0,1-4.5,5.64c-.74.75-1.49,1.44-2.21,2l-.15.14-.16-.12a18.58,18.58,0,0,1-3.65-3.67,6,6,0,0,1-1.06-1.74,28.86,28.86,0,0,0,5,5h-.31c.69-.62,1.43-1.31,2.16-2a44.6,44.6,0,0,0,4.57-5.47C396.62,154.77,397.2,153.8,397.27,153.84Z" style="fill:#263238"></path><path d="M391.84,293.63s.32-.12.81-.46a4.63,4.63,0,0,0,1.52-2l.1-.25.19.21a1.65,1.65,0,0,0,1.91.24,1.58,1.58,0,0,0,.47-.28,1.39,1.39,0,0,0,.24-.52,7,7,0,0,0,.23-1.36,49.9,49.9,0,0,0,0-6.45c-.11-2.08-.27-4.06-.44-5.86-.05-.45-.1-.88-.14-1.31a2.9,2.9,0,0,0-.1-.58c-.07-.17-.14-.36-.23-.53-.36-.69-.78-1.32-1.15-1.89-.76-1.13-1.41-2-1.85-2.65a6,6,0,0,1-.66-1,5.19,5.19,0,0,1,.82.88c.49.58,1.19,1.45,2,2.56a19.62,19.62,0,0,1,1.23,1.9,4.58,4.58,0,0,1,.27.59,3.56,3.56,0,0,1,.14.66l.15,1.32c.2,1.8.38,3.79.49,5.88a44.33,44.33,0,0,1,0,6.53,6.92,6.92,0,0,1-.28,1.44,2,2,0,0,1-.34.68,1.17,1.17,0,0,1-.33.23,1.73,1.73,0,0,1-.31.14,2,2,0,0,1-2.33-.41l.29-.05a4.42,4.42,0,0,1-1.73,2.05,2.49,2.49,0,0,1-.66.28A.77.77,0,0,1,391.84,293.63Z" style="fill:#ff9a6c"></path><path d="M386.48,258.24s-.13-.19,0-.56a1.5,1.5,0,0,1,1.18-1,2.5,2.5,0,0,1,2.09.83,3,3,0,0,1,.92,2.6,2.06,2.06,0,0,1-2.13,1.71,2.36,2.36,0,0,1-1.76-1.41,4.73,4.73,0,0,1-.36-1.44c0-.35,0-.54,0-.54s.17.77.68,1.81a2,2,0,0,0,1.48,1.11,1.61,1.61,0,0,0,1.57-1.34,2.63,2.63,0,0,0-.75-2.17,2.22,2.22,0,0,0-1.71-.8,1.36,1.36,0,0,0-1,.69C386.5,258,386.52,258.23,386.48,258.24Z" style="fill:#e0e0e0"></path><path d="M395.13,260.39s.22,0,.54.16a2,2,0,0,1,.9,1.25,1.66,1.66,0,0,1-.14,1.12,2.22,2.22,0,0,1-.89.91,4.85,4.85,0,0,1-2.73.42h-.06l-.06,0h0l-.2-.11.12,0a1.61,1.61,0,0,1-1.12-2.37,3.14,3.14,0,0,1,1.69-1.44c1.23-.44,2,0,1.95.07a3.62,3.62,0,0,0-1.81.27,2.82,2.82,0,0,0-1.4,1.3,1.27,1.27,0,0,0,0,1,.94.94,0,0,0,.76.64h.06l.06,0,.19.11h0l-.13,0a4.67,4.67,0,0,0,2.48-.32,1.54,1.54,0,0,0,.9-1.54,1.93,1.93,0,0,0-.66-1.15C395.3,260.5,395.12,260.43,395.13,260.39Z" style="fill:#e0e0e0"></path><path d="M398.56,258.81s.22,0,.54.17a2,2,0,0,1,.9,1.25,1.63,1.63,0,0,1-.14,1.11,2.24,2.24,0,0,1-.89.92,4.94,4.94,0,0,1-2.73.42h-.06l-.06,0h0l-.19-.12.12,0a1.62,1.62,0,0,1-1.12-2.38,3.16,3.16,0,0,1,1.69-1.43,2,2,0,0,1,1.95.06,3.86,3.86,0,0,0-1.81.28,2.82,2.82,0,0,0-1.4,1.3,1.27,1.27,0,0,0,0,1,1,1,0,0,0,.76.64h.06l.06,0,.19.11h0l-.12,0a4.77,4.77,0,0,0,2.48-.32,1.55,1.55,0,0,0,.9-1.55,1.87,1.87,0,0,0-.66-1.14C398.73,258.93,398.55,258.85,398.56,258.81Z" style="fill:#e0e0e0"></path><path d="M400.58,255.83s.19-.09.55,0a2,2,0,0,1,1.28.87,1.67,1.67,0,0,1,.23,1.1,2.24,2.24,0,0,1-.53,1.16,4.89,4.89,0,0,1-2.43,1.31l-.07,0-.06,0h0l-.22,0h.12a1.6,1.6,0,0,1-1.84-1.86,3.15,3.15,0,0,1,1.11-1.92c1-.83,1.91-.65,1.87-.59a3.71,3.71,0,0,0-1.62.86,2.86,2.86,0,0,0-.89,1.69,1.32,1.32,0,0,0,.3,1,.93.93,0,0,0,.93.34h.12l.22,0h-.12a4.66,4.66,0,0,0,2.23-1.13,1.55,1.55,0,0,0,.34-1.76,2,2,0,0,0-1-.86C400.77,255.88,400.58,255.87,400.58,255.83Z" style="fill:#e0e0e0"></path><path d="M392.94,262.08s.18.15.17.53a1.5,1.5,0,0,1-.86,1.26,2.52,2.52,0,0,1-2.25-.24,3,3,0,0,1-1.59-2.25,2.07,2.07,0,0,1,1.59-2.23,2.36,2.36,0,0,1,2.08.89,4.65,4.65,0,0,1,.73,1.29c.12.32.17.51.14.52s-.37-.7-1.14-1.56a2,2,0,0,0-1.73-.66,1.6,1.6,0,0,0-1.15,1.71,2.61,2.61,0,0,0,1.32,1.88,2.22,2.22,0,0,0,1.85.31,1.36,1.36,0,0,0,.81-.94C393,262.28,392.9,262.1,392.94,262.08Z" style="fill:#e0e0e0"></path><path d="M393.88,277.63a42.17,42.17,0,0,1,.7,13.45c-.15,0-.13-3-.33-6.73S393.73,277.65,393.88,277.63Z" style="fill:#ff9a6c"></path><path d="M389,279.86a22.3,22.3,0,0,1,.48,11.54c-.16,0,.14-2.6,0-5.78S388.81,279.89,389,279.86Z" style="fill:#ff9a6c"></path><path d="M383.39,281.23a14.57,14.57,0,0,1,.83,9c-.16,0,0-2-.22-4.52S383.24,281.27,383.39,281.23Z" style="fill:#ff9a6c"></path></g><g id="freepik--character-1--inject-105"><path d="M169.9,182.8s-14.68,33.79-13.84,41.57C157.24,235.26,190,257.6,190,257.6l8-17.39-15.13-20L192,197.41Z" style="fill:#ae7461"></path><path d="M280.6,182.28s14.68,33.79,13.84,41.57c-1.18,10.89-33.91,33.23-33.91,33.23l-8-17.39,15.13-20-9.19-22.79Z" style="fill:#ae7461"></path><path d="M212.89,124.72a84.13,84.13,0,0,1-3.83-14,29.34,29.34,0,0,1,1-14.33c.24-.69,2.37-5.33,3.1-5.27.52,0-.77,4.36-.5,4.81,2.57,4.3,3.32,9.49,3,14.48a65.72,65.72,0,0,1-2.73,14.29" style="fill:#263238"></path><path d="M230.38,83.52l1.12,0a21.7,21.7,0,0,1,20.79,20.83c.41,10.51.73,22.13.43,27.74-.62,11.63-12.34,13-12.34,13s0,10.83,0,10.83l-11.54,5-15.26-7.59-1.34-47C211.64,94.14,218.25,83.72,230.38,83.52Z" style="fill:#ae7461"></path><path d="M240.38,145.09a28.1,28.1,0,0,1-15-5.1s3.28,8.89,14.94,8.33Z" style="fill:#6f4439"></path><path d="M248.54,114.42a1.67,1.67,0,0,1-1.68,1.61,1.6,1.6,0,0,1-1.65-1.57,1.68,1.68,0,0,1,1.67-1.61A1.6,1.6,0,0,1,248.54,114.42Z" style="fill:#263238"></path><path d="M249.6,109.42c-.21.21-1.43-.77-3.22-.84s-3.14.77-3.32.54.13-.48.72-.87a4.51,4.51,0,0,1,2.67-.71,4.38,4.38,0,0,1,2.56.94C249.54,108.93,249.71,109.33,249.6,109.42Z" style="fill:#263238"></path><path d="M232.11,114.42a1.65,1.65,0,0,1-1.67,1.61,1.6,1.6,0,0,1-1.65-1.57,1.68,1.68,0,0,1,1.67-1.61A1.59,1.59,0,0,1,232.11,114.42Z" style="fill:#263238"></path><path d="M232.06,109.11c-.22.21-1.44-.77-3.22-.84s-3.14.77-3.32.54.13-.48.72-.87a4.49,4.49,0,0,1,2.67-.71,4.37,4.37,0,0,1,2.55.94C232,108.62,232.16,109,232.06,109.11Z" style="fill:#263238"></path><path d="M237.91,123.12a11.28,11.28,0,0,1,2.92-.41c.46,0,.9-.1,1-.41a2.32,2.32,0,0,0-.25-1.36c-.39-1.13-.79-2.3-1.21-3.54-1.67-5-2.86-9.15-2.66-9.21s1.73,4,3.4,9c.4,1.24.78,2.42,1.15,3.55a2.66,2.66,0,0,1,.16,1.8,1.15,1.15,0,0,1-.78.64,3.22,3.22,0,0,1-.78.07A11.52,11.52,0,0,1,237.91,123.12Z" style="fill:#263238"></path><path d="M233.34,104.66c-.27.45-2-.1-4.09-.23s-3.89.12-4.08-.36c-.08-.23.29-.63,1.05-1a6.93,6.93,0,0,1,3.16-.49,6.82,6.82,0,0,1,3.06,1C233.14,104,233.45,104.45,233.34,104.66Z" style="fill:#263238"></path><path d="M249.9,105.73c-.38.4-1.83-.06-3.58-.13s-3.24.19-3.57-.24c-.14-.21.1-.62.76-1a5.65,5.65,0,0,1,2.93-.59,5.53,5.53,0,0,1,2.83.89C249.88,105.11,250.07,105.54,249.9,105.73Z" style="fill:#263238"></path><path d="M212.78,114.92c-.2-.09-7.9-2.69-8,5.27s7.94,6.4,7.95,6.17S212.78,114.92,212.78,114.92Z" style="fill:#ae7461"></path><path d="M210.36,123.32s-.14.1-.38.2a1.4,1.4,0,0,1-1,0c-.83-.31-1.53-1.66-1.56-3.09a4.61,4.61,0,0,1,.41-2,1.61,1.61,0,0,1,1.06-1.06.7.7,0,0,1,.81.39c.11.22.05.38.1.39s.17-.13.11-.46a1,1,0,0,0-.31-.5,1,1,0,0,0-.77-.21,2,2,0,0,0-1.46,1.22,4.69,4.69,0,0,0-.5,2.22c0,1.6.84,3.11,2,3.46a1.51,1.51,0,0,0,1.27-.2C210.34,123.51,210.38,123.34,210.36,123.32Z" style="fill:#6f4439"></path><path d="M247.14,91.19c1.29-.71-2.57-4.89-5.74-6.33-4.79-2.17-12.1-3.52-16.51-2.27-5.32,1.51-9.74,4.15-12.41,9a31.33,31.33,0,0,0-3.52,16,9.45,9.45,0,0,0,1.12,4.87c1.11,1.76,3.24,2.87,3.15,5.3a3.34,3.34,0,0,0,.82,2.43c1.46,1.55,3.24.1,4.07-1.36,1.75-3.12,1.94-6.85,2.1-10.42a23.2,23.2,0,0,0-.5-7.58c-.39-1.32-1-2.58-1.33-3.93a4.79,4.79,0,0,1,.57-4,4.35,4.35,0,0,1,.65-.66,8.31,8.31,0,0,1,8.24-1.56c4.48,1.59,12.14,4,14.14,2.44,2.88-2.19,3.57-3.62,3.57-3.62Z" style="fill:#263238"></path><path d="M240.37,127.92c0,.22-1.54.25-3.31-.12a14.33,14.33,0,0,1-3.18-.74c0-.23,1.54-.35,3.32,0S240.36,127.73,240.37,127.92Z" style="fill:#263238"></path><path d="M271.64,241.38c0-3.23-4.33-45.25-5.94-56.47-1.85-13-5.17-26.73-5.64-27L246.85,156l-6.48-6.74c.23.34-5.85,6.74-5.85,6.74l-22.23-11.73c-.77.53-7,8.85-7,8.85s-13.65.63-14.23,1.16c-.41.37-4.8,54.48-4.71,55.31.15,1.35-.44,23.13-.44,23.13L183,252.11c-1.07,3.84.62,5.47,4.92,6.65L265,263.29c2.76-1,2.53-3,2.51-5.62Z" style="fill:#e0e0e0"></path><polygon points="239.09 164.01 237.27 166.9 233.13 166.9 230.91 163.31 233.35 158.77 236.04 158.9 239.09 164.01" style="fill:#800020"></polygon><polygon points="237.27 166.9 249.78 241.9 241.83 255 228.39 241.19 233.13 166.9 237.27 166.9" style="fill:#800020"></polygon><path d="M191,154.29s-9.28,1.05-15.92,13.66c-2.63,5-15.59,33.7-15.59,33.7l29,9.85s6.77-29.9,6.77-35.42S202.6,152.06,191,154.29Z" style="fill:#e0e0e0"></path><path d="M276.81,169.23c-6.47-13.27-30-13.22-30-13.22s16.12,59.06,16.71,59.71,26.49-15.55,26.49-15.55S283.42,182.8,276.81,169.23Z" style="fill:#e0e0e0"></path><path d="M261.48,188c0,3.25-2.27,5.89-5.07,5.89s-5.07-2.64-5.07-5.89,2.27-5.9,5.07-5.9S261.48,184.75,261.48,188Z" style="fill:#800020"></path><path d="M198.69,183.61s.13,0,.41-.05l1.26-.08,4.78-.24,16.63-.69H222v.26c0,2.44,0,5.06,0,7.76v.17l-.16.07c-.32.14-.68.28-1,.44l-11.45,4.85-.1,0-.1,0-11.39-5.48-.11-.05,0-.12c.28-2.13.52-3.84.68-5.08.08-.54.15-1,.2-1.32s.07-.45.09-.43a3,3,0,0,1,0,.49c0,.36-.07.81-.12,1.36-.12,1.23-.29,2.92-.51,5l-.09-.16,11.47,5.33h-.2l11.44-4.89,1-.44-.16.24c0-2.7,0-5.32,0-7.76l.26.25-16.49.46-4.83.1h-1.78Z" style="fill:#263238"></path><path d="M186.32,182.11c.09,0,0,1.66,0,4.32s0,6.35.3,10.42a90.68,90.68,0,0,1,.16,10.46c-.08,1.34-.16,2.42-.24,3.16a4.44,4.44,0,0,1-.18,1.15,5.81,5.81,0,0,1,0-1.16c0-.86.05-1.91.08-3.16.06-2.67,0-6.35-.31-10.42a88.15,88.15,0,0,1-.15-10.46c.07-1.33.15-2.41.24-3.16A5.94,5.94,0,0,1,186.32,182.11Z" style="fill:#263238"></path><path d="M269.38,177.29c.14,0,.19,9,.11,20.12s-.27,20.11-.41,20.11-.2-9-.11-20.12S269.24,177.29,269.38,177.29Z" style="fill:#263238"></path><path d="M247.36,156.18a3,3,0,0,1-.39.81c-.29.5-.73,1.2-1.31,2a44.16,44.16,0,0,1-5.14,6.19l-.3.3-.23.23-.17-.28c-1.6-2.58-3-4.91-4-6.61a19.09,19.09,0,0,1-1.52-2.8,20.65,20.65,0,0,1,1.83,2.61c1.08,1.65,2.55,3.95,4.15,6.52l-.4,0,.29-.3a55.72,55.72,0,0,0,5.21-6C246.59,157.19,247.29,156.14,247.36,156.18Z" style="fill:#263238"></path><path d="M234.28,156.07a8.08,8.08,0,0,1-.46,1.42,32.82,32.82,0,0,1-1.65,3.72,23.4,23.4,0,0,1-1.45,2.42c-.29.42-.6.84-.94,1.26a2.77,2.77,0,0,1-1.41,1.07,2.58,2.58,0,0,1-1.81-.4l-1.64-.79c-1.11-.53-2.25-1.11-3.41-1.71-4.65-2.39-8.74-4.79-11.63-6.62-1.45-.91-2.61-1.68-3.4-2.22a8.46,8.46,0,0,1-1.19-.9,8.1,8.1,0,0,1,1.3.73l3.48,2.07c2.94,1.75,7,4.1,11.68,6.48l3.39,1.71,1.63.8a2.33,2.33,0,0,0,1.49.39,2.4,2.4,0,0,0,1.17-.9c.33-.41.65-.81.94-1.22a24,24,0,0,0,1.48-2.34c.83-1.49,1.39-2.76,1.78-3.63A8.29,8.29,0,0,1,234.28,156.07Z" style="fill:#263238"></path><path d="M169.47,183.71a1.42,1.42,0,0,0,.81,1.83c1.37.63,3.55,1.43,5.15,1.1,2.51-.53,6.43-10.48,5.16-11.6-2.18-1.92-4.36-3.09-6-1.18C173.23,175.38,170.63,180.84,169.47,183.71Z" style="fill:#800020"></path><path d="M241,434.84l-1.14,21s20.9,8.2,21.07,12.09l-40.7-.77.45-32.71Z" style="fill:#263238"></path><path d="M227.31,453.79a1.65,1.65,0,0,0-1.19,1.87,1.59,1.59,0,0,0,1.85,1.19,1.74,1.74,0,0,0,1.24-2,1.65,1.65,0,0,0-2.06-1" style="fill:#e0e0e0"></path><path d="M220.23,467.11l.18-3.29,39,2s1.8.82,1.57,2.09Z" style="fill:#455a64"></path><path d="M240.52,455.59c0,.2-1,.27-2,.89s-1.52,1.45-1.7,1.37.13-1.23,1.34-2S240.57,455.41,240.52,455.59Z" style="fill:#fff"></path><path d="M244.76,457.44c0,.19-.83.51-1.52,1.34s-.9,1.71-1.1,1.7-.3-1.14.57-2.15S244.75,457.25,244.76,457.44Z" style="fill:#fff"></path><path d="M247.08,462.59c-.18,0-.44-1,.09-2s1.47-1.49,1.55-1.32-.5.74-.92,1.63S247.28,462.58,247.08,462.59Z" style="fill:#fff"></path><path d="M240.25,450.79c-.08.18-1-.11-2.12-.06s-2,.4-2.1.22.75-.86,2.08-.91S240.35,450.64,240.25,450.79Z" style="fill:#fff"></path><path d="M186.67,433.89l-2.21,25.28,4,20.51a2.6,2.6,0,0,1-2.23,3.08h0a2.6,2.6,0,0,1-2.23-.82c-3.63-3.95-16.9-18.57-16.64-20.41.31-2.13.56-26.83.56-26.83Z" style="fill:#263238"></path><path d="M186.26,482.76,167.5,459.82l-.07,1.07a3.92,3.92,0,0,0,.77,2.6c1.48,2,5.71,7.4,15.75,18.45a2.6,2.6,0,0,0,2.31.82Z" style="fill:#455a64"></path><g style="opacity:0.6000000000000001"><path d="M173.22,452a1.57,1.57,0,0,1,.3,2.08,1.51,1.51,0,0,1-2.06.31,1.66,1.66,0,0,1-.3-2.2,1.58,1.58,0,0,1,2.18-.09" style="fill:#fff"></path></g><path d="M181.18,471.32a8.08,8.08,0,0,1,2.35-1.83,7.88,7.88,0,0,1,2.95-.37c0-.06-.28-.28-.87-.4a4,4,0,0,0-2.29.26,4.09,4.09,0,0,0-1.81,1.44C181.18,470.92,181.12,471.29,181.18,471.32Z" style="fill:#fff"></path><path d="M182.77,474.83a18.86,18.86,0,0,1,2.31-.95,22.88,22.88,0,0,1,2.5-.16,2.91,2.91,0,0,0-2.62-.38C183.44,473.68,182.64,474.75,182.77,474.83Z" style="fill:#fff"></path><path d="M178.1,466.76a24.3,24.3,0,0,1,3.48-1.7,25.9,25.9,0,0,1,3.81-.64,7.15,7.15,0,0,0-7.29,2.34Z" style="fill:#fff"></path><path d="M178.13,459c.06.16,1.5-.34,3.32-.28s3.24.58,3.31.42a6.5,6.5,0,0,0-6.63-.14Z" style="fill:#fff"></path><path d="M178.59,451.57a13.23,13.23,0,0,1,3.45-.39,13,13,0,0,1,3.3,1.06c0-.05-.21-.38-.77-.76a5.69,5.69,0,0,0-5.07-.5C178.87,451.24,178.56,451.52,178.59,451.57Z" style="fill:#fff"></path><path d="M182.08,449.77a2.14,2.14,0,0,0,.1-1,6.81,6.81,0,0,0-.6-2.56,2.92,2.92,0,0,0-1.18-1.49,1,1,0,0,0-1.19.16,1.66,1.66,0,0,0-.47,1.12,3.67,3.67,0,0,0,3,3.6,4.28,4.28,0,0,0,4.32-2,1.49,1.49,0,0,0,.15-1.23,1.05,1.05,0,0,0-1-.61,3.7,3.7,0,0,0-1.72.76,7.49,7.49,0,0,0-1.86,1.86,2.2,2.2,0,0,0-.44.85,11.73,11.73,0,0,1,2.52-2.38,3.28,3.28,0,0,1,1.52-.62.54.54,0,0,1,.56.33,1,1,0,0,1-.14.79,3.81,3.81,0,0,1-3.77,1.66,3.21,3.21,0,0,1-2.59-3,1.28,1.28,0,0,1,.3-.8.57.57,0,0,1,.66-.09,2.63,2.63,0,0,1,1,1.24A9.66,9.66,0,0,1,182.08,449.77Z" style="fill:#fff"></path><path d="M265,263.29a79.74,79.74,0,0,1,2.24,26.51c-.5,5.63-22.1,161.46-22.1,161.46H216l8.2-146.46-2.39.46s-15.92,62.46-17.22,72.58C203.43,386.93,190,453,190,453l-26.66.27,8.51-87.36,9.91-83.81,3.73-24.4Z" style="fill:#263238"></path><path d="M219.61,289.86a5.11,5.11,0,0,0,1.21.61,15.9,15.9,0,0,0,3.62,1.11,8.55,8.55,0,0,0,2.68,0,5.86,5.86,0,0,0,2.81-1.19,5.74,5.74,0,0,0,1.71-2.62,31,31,0,0,0,.78-3.09c.93-4.23,1.56-8.09,1.93-10.89.18-1.4.3-2.53.37-3.32a4.31,4.31,0,0,0,0-1.23,5.52,5.52,0,0,0-.27,1.21c-.15.89-.34,2-.57,3.29-.47,2.78-1.17,6.62-2.1,10.84-.47,2.08-.79,4.2-2.27,5.45a6.68,6.68,0,0,1-5,1.15,18,18,0,0,1-3.59-.93A7.69,7.69,0,0,0,219.61,289.86Z" style="fill:#455a64"></path><path d="M228.39,270s-.19-.13-.6-.16a2.93,2.93,0,0,0-1.64.46,2.51,2.51,0,0,0-1.22,2,2.45,2.45,0,0,0,1.86,2.2,3,3,0,0,0,3.06-.58,2.32,2.32,0,0,0,.55-2.2,2.21,2.21,0,0,0-.88-1.29c-.33-.23-.56-.26-.57-.23a2.9,2.9,0,0,1,1,1.59,2,2,0,0,1-.56,1.8,2.39,2.39,0,0,1-2.41.4,2,2,0,0,1-1.52-1.7,2.19,2.19,0,0,1,.93-1.67A3.64,3.64,0,0,1,228.39,270Z" style="fill:#455a64"></path><path d="M266.6,267.24c-2.11-2-5.62-1.94-8.69-1.73-12.49.83-25,1.88-37.51,1.43s-25.13-2.48-36.29-7.47l1.64,8.77a1.36,1.36,0,0,1,1.78,1,6.74,6.74,0,0,1-.27,2.17,5.24,5.24,0,0,0,2,4.39,19.35,19.35,0,0,0,4.61,2.71c3.25,1.52,6.59,3.07,10.25,3.46s7.75-.67,9.75-3.39c.78-1.06,1.25-2.37,2.41-3.12,1.56-1,3.73-.69,5.66-.42,10.35,1.42,20.83-.95,31-3.3-1.6,2.37.3,5.72,3.25,6.65a9.86,9.86,0,0,0,8.68-1.95C267.81,274.14,269.3,269.77,266.6,267.24Z" style="opacity:0.30000000000000004"></path><path d="M191.25,240a2.62,2.62,0,0,0-2-2.9c-2.74-.85-7-2-7.94-1-1.38,1.48-10.43,35.77-7.37,38.06a9.14,9.14,0,0,0,9.19.76C186.4,273.42,189.82,247.93,191.25,240Z" style="fill:#263238"></path><path d="M184.84,263.43c.26.41,8,4.81,8,4.81l4-17.43s-6.77-2.81-7.79-4.6S184.84,263.43,184.84,263.43Z" style="fill:#263238"></path><path d="M199.69,247.27a6.31,6.31,0,0,0-5.39,1,2.8,2.8,0,0,0-.79.87c-.82,1.46-3.73,23.36-3.73,23.36l17,5.4,3.68-2.36,4.45-20.28s1.25-3.44-1.68-4.5C212.3,250.42,203.82,248.3,199.69,247.27Z" style="fill:#263238"></path><path d="M199.69,247.27a1.89,1.89,0,0,1,.36,0l1,.23,3.9.94,6.1,1.51,1.83.46a3.3,3.3,0,0,1,1.79,1,4.05,4.05,0,0,1,.51,3.89v0c-1.25,5.77-2.75,12.72-4.38,20.28l0,.11-.11.07L207,278.13l-.14.1-.17-.06-1.81-.57-15.21-4.84-.24-.08,0-.21c1.19-8.63,2.27-16,3.3-21.22.14-.65.27-1.26.46-1.85a2.63,2.63,0,0,1,1.16-1.37,6,6,0,0,1,2.8-1,6.54,6.54,0,0,1,1.88.08,3.07,3.07,0,0,1,.62.17,9.58,9.58,0,0,0-2.48-.07,5.76,5.76,0,0,0-2.63,1,2.45,2.45,0,0,0-1,1.27c-.16.54-.28,1.17-.4,1.81-.92,5.2-1.91,12.6-3.06,21.22l-.21-.29,15.22,4.81,1.82.57-.31,0,3.68-2.36-.13.18c1.68-7.55,3.22-14.49,4.51-20.26h0v0a3.71,3.71,0,0,0-.38-3.49,2.86,2.86,0,0,0-1.58-.86l-1.82-.48-6-1.62L201,247.69l-1-.3A1.65,1.65,0,0,1,199.69,247.27Z" style="fill:#455a64"></path><path d="M214.53,252.09a14.16,14.16,0,0,0-1.41.81,7.07,7.07,0,0,0-2.4,3.31c-.64,1.61-.81,3.66-1.54,5.89a8.42,8.42,0,0,1-2,3.24,10.26,10.26,0,0,1-3.6,2.32,11.16,11.16,0,0,1-8.44.08,6.2,6.2,0,0,1-2.6-2.42,7.39,7.39,0,0,1-1-2.76,13,13,0,0,1,.14-4.11,6.75,6.75,0,0,1,.34-1.47,7.36,7.36,0,0,1-.08,1.5,14.87,14.87,0,0,0,.07,4,7.35,7.35,0,0,0,1,2.58,5.74,5.74,0,0,0,2.42,2.18,10.62,10.62,0,0,0,7.87-.14,9.63,9.63,0,0,0,3.37-2.16,8,8,0,0,0,1.86-3c.74-2.13,1-4.22,1.68-5.87a7.12,7.12,0,0,1,2.69-3.36,5.37,5.37,0,0,1,1.14-.53A1.52,1.52,0,0,1,214.53,252.09Z" style="fill:#455a64"></path><path d="M206.69,268.85a62.93,62.93,0,0,0,10.4,2.42,71.34,71.34,0,0,0,13.73.4l1.23-11.1s-12.54.6-19.22-3Z" style="fill:#263238"></path><path d="M244.59,259.8l-1.46,11s8.79-.49,15.47-2.9l2-11.76A33.94,33.94,0,0,1,244.59,259.8Z" style="fill:#263238"></path><path d="M247.16,258.28l-6.17.07-1.21,2.79-3.54.12-1.72-2.43-6.66.18-.75,13.05a14.76,14.76,0,0,0,7.47,0l1.22-2.29,3.69.05,1.15,2.24,6.07-.2,1-11.66Z" style="fill:#263238"></path><path d="M247.16,258.28a2.52,2.52,0,0,1,.19.45l.49,1.41h0v0c-.13,2.23-.44,6.33-.87,11.68v.21h-.24l-6.07.23h-.2l-.08-.16c-.37-.7-.76-1.46-1.17-2.23l.28.16-3.69-.05.3-.16c-.38.72-.8,1.5-1.21,2.29l-.07.12-.12,0a15,15,0,0,1-7.36.11l-.32-.08-.25-.06V272c.28-4.64.54-9.05.78-13l0-.25h.28l6.66-.16h.16l.08.12,1.7,2.45-.22-.11,3.54-.1-.2.13c.46-1,.88-1.94,1.25-2.78l.05-.1H241l4.6,0a14.9,14.9,0,0,1,1.57.06,15.53,15.53,0,0,1-1.66.09l-4.5.14.16-.1c-.35.84-.74,1.76-1.18,2.79l0,.12h-.14l-3.54.16h-.15l-.07-.11c-.56-.77-1.13-1.58-1.75-2.43l.25.12-6.66.21.3-.26c-.23,4-.47,8.41-.73,13.05l-.23-.29.31.07a14.31,14.31,0,0,0,6.95-.09l-.19.15,1.23-2.29.08-.17h.21l3.69.06h.2l.08.16,1.15,2.24-.29-.15,6.07-.18-.26.22c.51-5.34.92-9.44,1.18-11.65v0c-.14-.56-.26-1-.36-1.39A3.72,3.72,0,0,1,247.16,258.28Z" style="fill:#455a64"></path><path d="M260.28,251.3l-6,23.59s4.19,2.59,6.34,2.44,7.35-3.2,7.35-3.2,6.06-23.93,5.54-24.54-2.95-2.47-4.33-2.53c-1,0-5,1.53-7.19,2.39A2.77,2.77,0,0,0,260.28,251.3Z" style="fill:#263238"></path><path d="M260.28,251.3a1.75,1.75,0,0,1,.26-.75,3.38,3.38,0,0,1,1.95-1.43c1-.41,2.22-.91,3.67-1.43a20.51,20.51,0,0,1,2.39-.74,2.47,2.47,0,0,1,1.47.1,7.09,7.09,0,0,1,1.31.61,10.44,10.44,0,0,1,2.4,1.85,1.87,1.87,0,0,1,0,.85c0,.24-.07.48-.11.73-.08.49-.17,1-.27,1.49-.39,2-.87,4.14-1.38,6.39-1,4.49-2.24,9.41-3.53,14.57-.06.22-.11.44-.17.65l0,.12-.11.07c-1.14.65-2.28,1.26-3.45,1.82a16,16,0,0,1-3.66,1.36,4.53,4.53,0,0,1-2-.16,13.19,13.19,0,0,1-1.77-.64,27.28,27.28,0,0,1-3.14-1.64l-.18-.11.05-.18,4.45-17c.55-2,1-3.66,1.32-4.85l.38-1.28a2.36,2.36,0,0,1,.16-.44,1.34,1.34,0,0,1-.06.46c-.07.34-.17.77-.28,1.3-.28,1.2-.67,2.84-1.15,4.88-1.05,4.25-2.51,10.13-4.21,17l-.13-.28a26,26,0,0,0,3.07,1.58,6.66,6.66,0,0,0,3.39.75,16.44,16.44,0,0,0,3.46-1.31c1.15-.55,2.29-1.16,3.4-1.8l-.14.18c.05-.22.11-.44.17-.66,1.26-5.16,2.47-10.07,3.57-14.55.53-2.24,1-4.37,1.45-6.37.09-.5.19-1,.28-1.47l.12-.71,0-.35c0-.08,0-.28,0-.23a10.53,10.53,0,0,0-2.22-1.72,3.43,3.43,0,0,0-2.41-.7,22.62,22.62,0,0,0-2.35.68c-1.45.49-2.69,1-3.7,1.34a3.42,3.42,0,0,0-1.94,1.27C260.37,251,260.32,251.31,260.28,251.3Z" style="fill:#455a64"></path><path d="M260.26,261.61h0a1,1,0,0,1-.86-1.16l.88-3.74a1.13,1.13,0,0,1,1.32-.76h0a1,1,0,0,1,.86,1.16l-.89,3.74A1.11,1.11,0,0,1,260.26,261.61Z" style="fill:#455a64"></path><path d="M259.28,265.12h0a1,1,0,0,1-.86-1.16h0a1.13,1.13,0,0,1,1.32-.76h0a1,1,0,0,1,.86,1.16h0A1.12,1.12,0,0,1,259.28,265.12Z" style="fill:#455a64"></path><path d="M267.26,270.37s4.94-1.31,5.58-3.58,1.08-24.19,0-25.51-7-.85-7.38-.57-3.14,3.88-3.14,3.88Z" style="fill:#263238"></path><path d="M269.1,249.21q7.14-15.65,14.29-31.28c.23-.5-.7-.72-.93-.22q-7.15,15.63-14.29,31.27c-.23.51.7.73.93.23Z" style="fill:#455a64"></path><path d="M273.5,249.59c.05.07-.57.55-1.66,1.23a22.28,22.28,0,0,1-4.6,2.21,4.35,4.35,0,0,1-1.58.22,4.62,4.62,0,0,1-1.42-.37,9,9,0,0,1-1.95-1.23c-1-.82-1.43-1.44-1.36-1.49a13,13,0,0,1,1.67,1.17,10.37,10.37,0,0,0,1.9,1.06,4.46,4.46,0,0,0,1.21.29,3.93,3.93,0,0,0,1.31-.21,32.93,32.93,0,0,0,4.57-2A9.7,9.7,0,0,1,273.5,249.59Z" style="fill:#455a64"></path><path d="M265.7,253c.18,0-1,5.5-2.55,12.22s-3,12.13-3.2,12.1,1-5.51,2.54-12.22S265.52,252.94,265.7,253Z" style="fill:#455a64"></path><path d="M272.38,255a7.13,7.13,0,0,1-2.65,1.2,7.7,7.7,0,0,1-2.89.65,7.23,7.23,0,0,1,2.65-1.2A7.5,7.5,0,0,1,272.38,255Z" style="fill:#455a64"></path><path d="M272.29,256.23a7.91,7.91,0,0,1-2.78,1.27,8.59,8.59,0,0,1-3,.71,7.79,7.79,0,0,1,2.78-1.26A8.48,8.48,0,0,1,272.29,256.23Z" style="fill:#455a64"></path><path d="M272,257.52c.07.15-1.17.72-2.77,1.27a8.37,8.37,0,0,1-3,.72,8,8,0,0,1,2.77-1.27A8.13,8.13,0,0,1,272,257.52Z" style="fill:#455a64"></path><path d="M271.61,258.78a7.9,7.9,0,0,1-2.75,1.25,8,8,0,0,1-3,.69,7.78,7.78,0,0,1,2.75-1.24A8.16,8.16,0,0,1,271.61,258.78Z" style="fill:#455a64"></path><path d="M271.64,260a8.79,8.79,0,0,1-2.93,1.29,9.26,9.26,0,0,1-3.17.74,8.67,8.67,0,0,1,2.93-1.29A9.22,9.22,0,0,1,271.64,260Z" style="fill:#455a64"></path><path d="M267.12,249.94l.08,0-.13,0h.1l-.13,0,.11,0-.12,0,.1,0-.1-.06a.27.27,0,0,1,.08.07l-.08-.09.06.08,0-.1a.19.19,0,0,1,0,.07l0-.11a.08.08,0,0,1,0,.07l0-.11a.24.24,0,0,1,0,.08l0-.1-.06.08.08-.09a.27.27,0,0,1-.08.07l.1-.07a.33.33,0,0,1-.1.06l.12-.05-.11,0,.13,0h0l-.09,0,.12,0-.08,0,.1.07-.06-.06.07.09a.41.41,0,0,1-.05-.09l0,.1,0-.09,0,.11v-.11l0,.12,0-.08-.05.1a.18.18,0,0,1,.05-.07l-.08.08h0a.28.28,0,0,0,.1-.14.23.23,0,0,0,0-.16.41.41,0,0,0-.14-.3.54.54,0,0,0-.68,0,.65.65,0,0,0-.13.16.61.61,0,0,0-.08.25.38.38,0,0,0,0,.15.45.45,0,0,0,0,.2.82.82,0,0,0,.09.19.71.71,0,0,0,.15.15.54.54,0,0,0,.18.11l.16.06.19,0a1,1,0,0,0,.46-.09l.19-.13s0,0,0,0l.11-.12s0,0,0,0A.37.37,0,0,0,268,250a.9.9,0,0,0,0-.16v0a.77.77,0,0,0-.07-.26.41.41,0,0,0-.05-.09,1.47,1.47,0,0,0-.1-.13l-.19-.14a.92.92,0,0,0-.23-.09l-.07,0-.19,0-.18,0-.07,0a.63.63,0,0,0-.29.2.37.37,0,0,0-.05.32.47.47,0,0,0,.22.26.55.55,0,0,0,.38,0Z" style="fill:#455a64"></path><path d="M265.07,250.78l.08,0-.13,0h.1l-.13,0,.11,0-.12,0,.1.05-.1-.07a.27.27,0,0,1,.08.07l-.08-.09.06.08-.05-.1a.19.19,0,0,1,0,.08l0-.12a.11.11,0,0,1,0,.08l0-.11a.19.19,0,0,1,0,.07l.05-.1a.56.56,0,0,1-.05.08l.07-.08-.08.07.1-.07-.1,0,.12,0-.11,0h.16l-.09,0,.12.05-.08,0,.1.06-.06,0,.07.08a.35.35,0,0,1,0-.08l0,.1a.36.36,0,0,1,0-.1v0l0,.11,0-.08-.05.1.05-.07-.08.09v0a.26.26,0,0,0,.1-.13.24.24,0,0,0,0-.16.39.39,0,0,0-.14-.3.53.53,0,0,0-.81.16.57.57,0,0,0-.08.24.38.38,0,0,0,0,.15.45.45,0,0,0,0,.2.66.66,0,0,0,.09.19,1.06,1.06,0,0,0,.15.15.57.57,0,0,0,.18.12l.16.05a1.25,1.25,0,0,0,.19,0,1,1,0,0,0,.46-.1.8.8,0,0,0,.19-.13l0,0a.69.69,0,0,0,.11-.13.08.08,0,0,0,0,0,.51.51,0,0,0,.07-.15.76.76,0,0,0,0-.16v-.05a.77.77,0,0,0-.07-.26l0-.09-.11-.12a1.39,1.39,0,0,0-.19-.15.92.92,0,0,0-.23-.09h-.07l-.19,0-.18,0-.07,0a.29.29,0,0,0-.16.07.3.3,0,0,0-.13.12.43.43,0,0,0,0,.33.45.45,0,0,0,.22.25.55.55,0,0,0,.38,0Z" style="fill:#800020"></path></g></svg>
